<?xml version="1.0" encoding="utf-8"?>
<COLLADA xmlns="http://www.collada.org/2005/11/COLLADASchema" version="1.4.1" xmlns:xsi="http://www.w3.org/2001/XMLSchema-instance">
  <asset>
    <contributor>
      <author>Blender User</author>
      <authoring_tool>Blender 3.0.1 commit date:2022-01-25, commit time:17:19, hash:dc2d18018171</authoring_tool>
    </contributor>
    <created>2026-02-06T11:36:16</created>
    <modified>2026-02-06T11:36:16</modified>
    <unit name="meter" meter="1"/>
    <up_axis>Z_UP</up_axis>
  </asset>
  <library_images/>
  <library_geometries>
    <geometry id="Cylinder_003-mesh" name="Cylinder.003">
      <mesh>
        <source id="Cylinder_003-mesh-positions">
          <float_array id="Cylinder_003-mesh-positions-array" count="576">0 0.9 -0.04999995 0 0.9 0.04999995 0.1755813 0.8827067 -0.04999995 0.1755813 0.8827067 0.04999995 0.3444151 0.8314915 -0.04999995 0.3444151 0.8314915 0.04999995 0.5000132 0.7483226 -0.04999995 0.5000132 0.7483226 0.04999995 0.6363961 0.6363961 -0.04999995 0.6363961 0.6363961 0.04999995 0.7483226 0.5000132 -0.04999995 0.7483226 0.5000132 0.04999995 0.8314915 0.3444151 -0.04999995 0.8314915 0.3444151 0.04999995 0.8827067 0.1755813 -0.04999995 0.8827067 0.1755813 0.04999995 0.9 0 -0.04999995 0.9 0 0.04999995 0.8827067 -0.1755813 -0.04999995 0.8827067 -0.1755813 0.04999995 0.8314916 -0.344415 -0.04999995 0.8314916 -0.344415 0.04999995 0.7483227 -0.5000132 -0.04999995 0.7483227 -0.5000132 0.04999995 0.6363961 -0.6363961 -0.04999995 0.6363961 -0.6363961 0.04999995 0.5000132 -0.7483227 -0.04999995 0.5000132 -0.7483227 0.04999995 0.3444151 -0.8314915 -0.04999995 0.3444151 -0.8314915 0.04999995 0.1755812 -0.8827068 -0.04999995 0.1755812 -0.8827068 0.04999995 0 -0.9 -0.04999995 0 -0.9 0.04999995 -0.1755812 -0.8827068 -0.04999995 -0.1755812 -0.8827068 0.04999995 -0.3444151 -0.8314915 -0.04999995 -0.3444151 -0.8314915 0.04999995 -0.5000132 -0.7483226 -0.04999995 -0.5000132 -0.7483226 0.04999995 -0.6363961 -0.6363961 -0.04999995 -0.6363961 -0.6363961 0.04999995 -0.7483225 -0.5000134 -0.04999995 -0.7483225 -0.5000134 0.04999995 -0.8314915 -0.3444152 -0.04999995 -0.8314915 -0.3444152 0.04999995 -0.8827067 -0.1755813 -0.04999995 -0.8827067 -0.1755813 0.04999995 -0.9 0 -0.04999995 -0.9 0 0.04999995 -0.8827067 0.1755813 -0.04999995 -0.8827067 0.1755813 0.04999995 -0.8314915 0.3444153 -0.04999995 -0.8314915 0.3444153 0.04999995 -0.7483227 0.5000131 -0.04999995 -0.7483227 0.5000131 0.04999995 -0.6363962 0.636396 -0.04999995 -0.6363962 0.636396 0.04999995 -0.5000132 0.7483226 -0.04999995 -0.5000132 0.7483226 0.04999995 -0.3444151 0.8314916 -0.04999995 -0.3444151 0.8314916 0.04999995 -0.1755812 0.8827068 -0.04999995 -0.1755812 0.8827068 0.04999995 -0.1560721 -0.7846283 -0.04999995 -0.1560721 -0.7846283 0.04999995 0.1560722 0.7846282 -0.04999995 0.1560722 0.7846282 0.04999995 0.4444562 0.6651757 0.04999995 0.6651757 0.4444562 0.04999995 0.5656855 0.5656855 0.04999995 0.3061468 0.7391036 -0.04999995 0.8 0 0.04999995 0.3061468 0.7391036 0.04999995 0.7846282 -0.1560722 0.04999995 0.7846282 0.1560723 0.04999995 0.7391036 0.3061468 0.04999995 -0.3061468 -0.7391036 -0.04999995 -0.3061468 -0.7391036 0.04999995 0.4444562 0.6651757 -0.04999995 -0.6651758 0.4444561 0.04999995 -0.4444562 -0.6651756 -0.04999995 -0.7391036 0.3061469 0.04999995 -0.4444562 0.6651757 0.04999995 -0.5656855 0.5656853 0.04999995 -0.4444562 -0.6651756 0.04999995 -0.1560721 0.7846283 0.04999995 -0.3061468 0.7391037 0.04999995 0 0.8 0.04999995 0.5656855 0.5656855 -0.04999995 -0.5656854 -0.5656855 -0.04999995 -0.5656854 -0.5656855 0.04999995 0.6651757 0.4444562 -0.04999995 0.7391037 -0.3061467 0.04999995 -0.8 0 0.04999995 -0.7846282 0.1560723 0.04999995 -0.7846282 -0.1560723 0.04999995 -0.6651756 -0.4444563 0.04999995 -0.6651756 -0.4444563 -0.04999995 -0.7391036 -0.3061469 0.04999995 0.7391036 0.3061468 -0.04999995 -0.7391036 -0.3061469 -0.04999995 0.1560722 -0.7846283 0.04999995 0 -0.8 0.04999995 0.5656855 -0.5656855 0.04999995 0.4444562 -0.6651757 0.04999995 0.6651757 -0.4444562 0.04999995 0.7846282 0.1560723 -0.04999995 0.3061468 -0.7391036 0.04999995 0 0.8 -0.04999995 -0.7846282 -0.1560723 -0.04999995 0.8 0 -0.04999995 -0.8 0 -0.04999995 0.7846282 -0.1560722 -0.04999995 0.3061468 -0.7391036 -0.04999995 0.5656855 -0.5656855 -0.04999995 0.4444562 -0.6651757 -0.04999995 0.7391037 -0.3061467 -0.04999995 0.6651757 -0.4444562 -0.04999995 -0.7846282 0.1560723 -0.04999995 -0.7391036 0.3061469 -0.04999995 0 -0.8 -0.04999995 -0.6651758 0.4444561 -0.04999995 -0.5656855 0.5656853 -0.04999995 -0.3061468 0.7391037 -0.04999995 -0.4444562 0.6651757 -0.04999995 0.1560722 -0.7846283 -0.04999995 -0.1560721 0.7846283 -0.04999995 0 -1.7 -0.04999989 0 -0.9000001 -0.04999995 0.009754478 -1.7 -0.04903918 0.009754478 -0.9000001 -0.04903918 0.01913416 -1.7 -0.04619389 0.01913416 -0.9000001 -0.04619389 0.0277785 -1.7 -0.0415734 0.0277785 -0.9000001 -0.0415734 0.03535532 -1.7 -0.03535526 0.03535532 -0.9000001 -0.03535526 0.04157346 -1.7 -0.02777838 0.04157346 -0.9000001 -0.02777844 0.04619395 -1.7 -0.01913404 0.04619395 -0.9000001 -0.0191341 0.04903924 -1.7 -0.009754419 0.04903924 -0.9000001 -0.009754478 0.04999995 -1.7 0 0.04999995 -0.9000001 0 0.04903924 -1.7 0.009754538 0.04903924 -0.9000001 0.009754538 0.04619395 -1.7 0.01913422 0.04619395 -0.9000001 0.01913416 0.04157346 -1.7 0.02777856 0.04157346 -0.9000001 0.0277785 0.03535532 -1.7 0.03535538 0.03535532 -0.9000001 0.03535532 0.0277785 -1.7 0.04157352 0.0277785 -0.9000001 0.04157352 0.01913416 -1.7 0.04619401 0.01913416 -0.9000001 0.04619401 0.009754478 -1.7 0.0490393 0.009754478 -0.9000001 0.0490393 0 -1.7 0.05000007 0 -0.9000001 0.05000001 -0.009754478 -1.7 0.0490393 -0.009754478 -0.9000001 0.0490393 -0.01913416 -1.7 0.04619401 -0.01913416 -0.9000001 0.04619401 -0.0277785 -1.7 0.04157352 -0.0277785 -0.9000001 0.04157346 -0.03535532 -1.7 0.03535538 -0.03535532 -0.9000001 0.03535532 -0.04157346 -1.7 0.02777856 -0.04157346 -0.9000001 0.02777856 -0.04619395 -1.7 0.01913422 -0.04619395 -0.9000001 0.01913422 -0.04903924 -1.7 0.009754538 -0.04903924 -0.9000001 0.009754538 -0.04999995 -1.7 0 -0.04999995 -0.9000001 0 -0.04903924 -1.7 -0.009754419 -0.04903924 -0.9000001 -0.009754478 -0.04619395 -1.7 -0.0191341 -0.04619395 -0.9000001 -0.0191341 -0.04157346 -1.7 -0.02777838 -0.04157346 -0.9000001 -0.02777844 -0.03535532 -1.7 -0.03535521 -0.03535532 -0.9000001 -0.03535526 -0.0277785 -1.7 -0.0415734 -0.0277785 -0.9000001 -0.0415734 -0.01913416 -1.7 -0.04619389 -0.01913416 -0.9000001 -0.04619389 -0.009754478 -1.7 -0.04903918 -0.009754478 -0.9000001 -0.04903918</float_array>
          <technique_common>
            <accessor source="#Cylinder_003-mesh-positions-array" count="192" stride="3">
              <param name="X" type="float"/>
              <param name="Y" type="float"/>
              <param name="Z" type="float"/>
            </accessor>
          </technique_common>
        </source>
        <source id="Cylinder_003-mesh-normals">
          <float_array id="Cylinder_003-mesh-normals-array" count="726">0.09801727 0.9951848 0 0.2902847 0.9569404 0 0.4713968 0.8819212 0 0.6343936 0.7730102 0 0.7730101 0.6343938 0 0.8819211 0.4713972 0 0.9569404 0.2902846 0 0.9951847 0.09801793 0 0.9951848 -0.09801626 0 0.9569407 -0.2902838 0 0.8819214 -0.4713966 0 0.7730103 -0.6343937 0 0.6343938 -0.7730101 0 0.4713966 -0.8819214 0 0.2902849 -0.9569403 0 0.09801691 -0.9951848 0 -0.09801703 -0.9951848 0 -0.2902849 -0.9569403 0 -0.4713969 -0.8819212 0 -0.6343932 -0.7730106 0 -0.7730103 -0.6343935 0 -0.8819214 -0.4713966 0 -0.9569405 -0.2902844 0 -0.9951847 -0.09801793 0 -0.9951849 0.09801626 0 -0.9569402 0.2902852 0 -0.8819214 0.4713967 0 -0.7730104 0.6343935 0 -0.6343934 0.7730104 0 -0.4713969 0.8819212 0 0 0 1 0 0 1 -0.2902846 0.9569405 0 -0.09801697 0.9951848 0 0 0 -1 -0.09801727 -0.9951847 0 -0.2902846 -0.9569404 0 -0.634393 -0.7730107 0 -0.7730107 -0.634393 0 -0.8819214 -0.4713968 0 -0.9569402 -0.2902852 0 -0.9951847 -0.09801781 0 -0.9951848 0.09801691 0 -0.9569405 0.2902844 0 -0.8819214 0.4713968 0 -0.7730105 0.6343932 0 -0.6343932 0.7730105 0 -0.4713965 0.8819214 0 -0.2902848 0.9569403 0 -0.09801685 0.9951848 0 0.09801697 0.9951848 0 0.2902849 0.9569403 0 0.4713969 0.8819213 0 0.634393 0.7730108 0 0.7730101 0.6343938 0 0.8819213 0.4713966 0 0.9569402 0.2902851 0 0.9951847 0.09801781 0 0.9951848 -0.09801685 0 0.9569402 -0.2902851 0 0.8819217 -0.471396 0 0.7730104 -0.6343933 0 0.6343937 -0.7730101 0 0.4713969 -0.8819213 0 0.2902845 -0.9569404 0 0.09801697 -0.9951848 0 0.09801787 0 -0.9951847 0.2902843 0 -0.9569405 0.4713961 0 -0.8819216 0.634393 0 -0.7730107 0.7730107 0 -0.6343931 0.8819214 0 -0.4713966 0.9569404 0 -0.2902848 0.9951847 0 -0.09801721 0.9951847 0 0.09801727 0.9569405 0 0.2902843 0.8819215 0 0.4713966 0.7730107 0 0.634393 0.6343933 0 0.7730105 0.4713971 0 0.8819212 0.2902852 0 0.9569403 0.09801596 0 0.9951849 -0.09801793 0 0.9951847 -0.2902852 0 0.9569403 -0.4713966 0 0.8819214 -0.634393 0 0.7730109 -0.7730103 0 0.6343936 -0.8819211 0 0.471397 -0.9569404 0 0.2902845 -0.9951847 0 0.09801721 -0.9951848 0 -0.09801727 -0.9569403 0 -0.2902849 -0.8819215 0 -0.4713965 -0.7730105 0 -0.6343932 -0.6343939 0 -0.77301 -0.4713973 0 -0.8819209 0 1 0 -0.2902843 0 -0.9569405 -0.09801602 0 -0.9951849 0 -1 0 0.2902846 0.9569404 0 0.4713966 0.8819214 0 0.7730105 0.6343933 0 0.8819214 0.4713965 0 0.9951849 0.09801626 0 0.9951847 -0.09801793 0 0.9569401 -0.2902854 0 0.6343936 -0.7730103 0 -0.2902849 -0.9569404 0 -0.8819208 -0.4713979 0 -0.9951849 -0.09801626 0 -0.9951847 0.09801793 0 -0.9569405 0.2902844 0 -0.7730108 0.634393 0 0 0 1 0 0 1 0 0 1 0 0 1 0 0 1 0 0 1 0 0 1 0 0 1 0 0 1 0 0 1 0 0 1 0 0 1 0 0 1 0 0 1 0 0 1 0 0 1 0 0 1 0 0 1 0 0 1 0 0 1 0 0 1 0 0 1 0 0 1 0 0 1 0 0 1 0 0 -1 0 0 -1 0 0 -1 0 0 -1 0 0 -1 0 0 -1 0 0 -1 0 0 -1 0 0 -1 0 0 -1 0 0 -1 0 0 -1 0 0 -1 0 0 -1 0 0 -1 0 0 -1 0 0 -1 0 0 -1 0 0 -1 0 0 -1 0 0 -1 0 0 -1 0 0 -1 0 0 -1 0 0 -1 0 0 -1 0 0 -1 0 0 -1 -0.2902846 -0.9569404 0 -0.4713968 -0.8819214 0 -0.6343932 -0.7730105 0 -0.7730104 -0.6343933 0 -0.9569405 -0.2902844 0 -0.9951848 -0.09801685 0 -0.9951847 0.09801787 0 -0.4713968 0.8819212 0 -0.290285 0.9569403 0 -0.09801685 0.9951848 0 0.09801697 0.9951848 0 0.2902849 0.9569403 0 0.6343935 0.7730104 0 0.7730106 0.6343932 0 0.881921 0.4713974 0 0.9569405 0.2902842 0 0.9951848 0.09801685 0 0.9951847 -0.09801781 0 0.8819213 -0.4713967 0 0.7730103 -0.6343936 0 0.6343935 -0.7730103 0 0.2902846 -0.9569404 0 0.09801691 0 -0.9951848 0.2902852 0 -0.9569403 0.4713976 0 -0.8819209 0.634393 0 -0.7730107 0.7730109 0 -0.6343929 0.8819213 0 -0.4713969 0.9569404 0 -0.2902848 0.9951848 0 -0.09801721 0.9951848 0 0.09801727 0.9569405 0 0.2902843 0.8819212 0 0.4713969 0.7730102 0 0.6343936 0.6343932 0 0.7730105 0.4713963 0 0.8819216 0.2902851 0 0.9569403 0.09801781 0 0.9951847 -0.09801602 0 0.9951849 -0.2902852 0 0.9569403 -0.4713973 0 0.8819211 -0.6343934 0 0.7730104 -0.77301 0 0.6343939 -0.8819212 0 0.4713969 -0.9569404 0 0.2902845 -0.9951848 0 0.09801721 -0.9951847 0 -0.09801721 -0.9569403 0 -0.2902849 -0.8819214 0 -0.4713967 -0.7730106 0 -0.6343932 -0.634393 0 -0.7730107 -0.4713966 0 -0.8819214 0 1 -4.96891e-5 0 1 6.2111e-6 0 1 1.71066e-6 0 1 6.71118e-5 0 1 4.9689e-5 0 1 -4.27667e-6 0 1 8.389e-6 0 1 -2.48443e-5 0 1 -2.5577e-5 -0.2902851 0 -0.9569403 -0.09801787 0 -0.9951847 0 -1 -3.97512e-4 0 -1 9.93773e-5 0 -1 6.84264e-5 0 -1 1.98756e-4 0 -1 -9.9378e-5 0 -1 -1.98756e-4 0 -1 1.79629e-5 0 -1 1.27885e-5 0 -1 5.11539e-5 0 -1 -7.19491e-6 0 -1 1.05367e-6 0 -1 -5.96046e-6</float_array>
          <technique_common>
            <accessor source="#Cylinder_003-mesh-normals-array" count="242" stride="3">
              <param name="X" type="float"/>
              <param name="Y" type="float"/>
              <param name="Z" type="float"/>
            </accessor>
          </technique_common>
        </source>
        <source id="Cylinder_003-mesh-map-0">
          <float_array id="Cylinder_003-mesh-map-0-array" count="2280">1 1 0.96875 0.5 1 0.5 0.96875 1 0.9375 0.5 0.96875 0.5 0.9375 1 0.90625 0.5 0.9375 0.5 0.90625 1 0.875 0.5 0.90625 0.5 0.875 1 0.84375 0.5 0.875 0.5 0.84375 1 0.8125 0.5 0.84375 0.5 0.8125 1 0.78125 0.5 0.8125 0.5 0.78125 1 0.75 0.5 0.78125 0.5 0.75 1 0.71875 0.5 0.75 0.5 0.71875 1 0.6875 0.5 0.71875 0.5 0.6875 1 0.65625 0.5 0.6875 0.5 0.65625 1 0.625 0.5 0.65625 0.5 0.625 1 0.59375 0.5 0.625 0.5 0.59375 1 0.5625 0.5 0.59375 0.5 0.5625 1 0.53125 0.5 0.5625 0.5 0.53125 1 0.5 0.5 0.53125 0.5 0.5 1 0.46875 0.5 0.5 0.5 0.46875 1 0.4375 0.5 0.46875 0.5 0.4375 1 0.40625 0.5 0.4375 0.5 0.40625 1 0.375 0.5 0.40625 0.5 0.375 1 0.34375 0.5 0.375 0.5 0.34375 1 0.3125 0.5 0.34375 0.5 0.3125 1 0.28125 0.5 0.3125 0.5 0.28125 1 0.25 0.5 0.28125 0.5 0.25 1 0.21875 0.5 0.25 0.5 0.21875 1 0.1875 0.5 0.21875 0.5 0.1875 1 0.15625 0.5 0.1875 0.5 0.15625 1 0.125 0.5 0.15625 0.5 0.125 1 0.09375 0.5 0.125 0.5 0.09375 1 0.0625 0.5 0.09375 0.5 0.4717311 0.341844 0.4470943 0.3316391 0.4592342 0.2916193 0.02826887 0.1581559 0.05290567 0.1683608 0.04076576 0.2083807 0.0625 1 0.03125 0.5 0.0625 0.5 0.03125 1 0 0.5 0.03125 0.5 0.5146116 0.2031783 0.5407657 0.2083806 0.5529058 0.1683608 0.9853885 0.2968217 0.9592344 0.2916194 0.9470946 0.3316392 1 0.625 0.96875 0.875 1 0.875 0.96875 0.625 0.9375 0.875 0.96875 0.875 0.90625 0.875 0.9375 0.625 0.90625 0.625 0.875 0.875 0.90625 0.625 0.875 0.625 0.875 0.875 0.84375 0.625 0.84375 0.875 0.84375 0.875 0.8125 0.625 0.8125 0.875 0.8125 0.875 0.78125 0.625 0.78125 0.875 0.78125 0.875 0.75 0.625 0.75 0.875 0.75 0.875 0.71875 0.625 0.71875 0.875 0.71875 0.875 0.6875 0.625 0.6875 0.875 0.6875 0.875 0.65625 0.625 0.65625 0.875 0.65625 0.875 0.625 0.625 0.625 0.875 0.625 0.875 0.59375 0.625 0.59375 0.875 0.59375 0.875 0.5625 0.625 0.5625 0.875 0.5625 0.875 0.53125 0.625 0.53125 0.875 0.53125 0.875 0.5 0.625 0.5 0.875 0.46875 0.625 0.5 0.875 0.5 0.625 0.46875 0.625 0.4375 0.875 0.46875 0.875 0.4375 0.875 0.40625 0.625 0.40625 0.875 0.40625 0.875 0.375 0.625 0.375 0.875 0.34375 0.875 0.375 0.625 0.34375 0.625 0.3125 0.875 0.34375 0.625 0.3125 0.625 0.28125 0.875 0.3125 0.625 0.28125 0.625 0.25 0.875 0.28125 0.625 0.25 0.625 0.21875 0.875 0.25 0.625 0.21875 0.625 0.1875 0.875 0.21875 0.625 0.1875 0.625 0.15625 0.875 0.1875 0.625 0.15625 0.625 0.125 0.875 0.15625 0.625 0.125 0.625 0.09375 0.875 0.125 0.625 0.09375 0.625 0.0625 0.875 0.09375 0.625 0.0625 0.625 0.03125 0.875 0.0625 0.625 0.03125 0.625 0 0.875 0.03125 0.625 0 0.625 1 1 0.96875 0.5 1 0.5 0.96875 1 0.9375 0.5 0.96875 0.5 0.9375 1 0.90625 0.5 0.9375 0.5 0.90625 1 0.875 0.5 0.90625 0.5 0.875 1 0.84375 0.5 0.875 0.5 0.84375 1 0.8125 0.5 0.84375 0.5 0.8125 1 0.78125 0.5 0.8125 0.5 0.78125 1 0.75 0.5 0.78125 0.5 0.75 1 0.71875 0.5 0.75 0.5 0.71875 1 0.6875 0.5 0.71875 0.5 0.6875 1 0.65625 0.5 0.6875 0.5 0.65625 1 0.625 0.5 0.65625 0.5 0.625 1 0.59375 0.5 0.625 0.5 0.59375 1 0.5625 0.5 0.59375 0.5 0.5625 1 0.53125 0.5 0.5625 0.5 0.53125 1 0.5 0.5 0.53125 0.5 0.5 1 0.46875 0.5 0.5 0.5 0.46875 1 0.4375 0.5 0.46875 0.5 0.4375 1 0.40625 0.5 0.4375 0.5 0.40625 1 0.375 0.5 0.40625 0.5 0.375 1 0.34375 0.5 0.375 0.5 0.34375 1 0.3125 0.5 0.34375 0.5 0.3125 1 0.28125 0.5 0.3125 0.5 0.28125 1 0.25 0.5 0.28125 0.5 0.25 1 0.21875 0.5 0.25 0.5 0.21875 1 0.1875 0.5 0.21875 0.5 0.1875 1 0.15625 0.5 0.1875 0.5 0.15625 1 0.125 0.5 0.15625 0.5 0.125 1 0.09375 0.5 0.125 0.5 0.09375 1 0.0625 0.5 0.09375 0.5 0.1581559 0.02826893 0.4717311 0.158156 0.341844 0.4717311 0.0625 1 0.03125 0.5 0.0625 0.5 0.03125 1 0 0.5 0.03125 0.5 0.7031784 0.4853885 0.9853885 0.2968217 0.7968217 0.01461148 1 1 0.96875 1 0.96875 0.5 0.96875 1 0.9375 1 0.9375 0.5 0.9375 1 0.90625 1 0.90625 0.5 0.90625 1 0.875 1 0.875 0.5 0.875 1 0.84375 1 0.84375 0.5 0.84375 1 0.8125 1 0.8125 0.5 0.8125 1 0.78125 1 0.78125 0.5 0.78125 1 0.75 1 0.75 0.5 0.75 1 0.71875 1 0.71875 0.5 0.71875 1 0.6875 1 0.6875 0.5 0.6875 1 0.65625 1 0.65625 0.5 0.65625 1 0.625 1 0.625 0.5 0.625 1 0.59375 1 0.59375 0.5 0.59375 1 0.5625 1 0.5625 0.5 0.5625 1 0.53125 1 0.53125 0.5 0.53125 1 0.5 1 0.5 0.5 0.5 1 0.46875 1 0.46875 0.5 0.46875 1 0.4375 1 0.4375 0.5 0.4375 1 0.40625 1 0.40625 0.5 0.40625 1 0.375 1 0.375 0.5 0.375 1 0.34375 1 0.34375 0.5 0.34375 1 0.3125 1 0.3125 0.5 0.3125 1 0.28125 1 0.28125 0.5 0.28125 1 0.25 1 0.25 0.5 0.25 1 0.21875 1 0.21875 0.5 0.21875 1 0.1875 1 0.1875 0.5 0.1875 1 0.15625 1 0.15625 0.5 0.15625 1 0.125 1 0.125 0.5 0.125 1 0.09375 1 0.09375 0.5 0.09375 1 0.0625 1 0.0625 0.5 0.4592342 0.2083806 0.4470943 0.1683608 0.4717311 0.1581559 0.4717311 0.1581559 0.4853885 0.2031783 0.4592342 0.2083806 0.4853885 0.2031783 0.49 0.25 0.4633333 0.25 0.49 0.25 0.4853885 0.2968217 0.4633333 0.25 0.4853885 0.2968217 0.4717311 0.341844 0.4592342 0.2916193 0.4633333 0.25 0.4853885 0.2968217 0.4592342 0.2916193 0.4717311 0.341844 0.4495527 0.3833369 0.4273802 0.3685216 0.4495527 0.3833369 0.4197056 0.4197056 0.4008495 0.4008495 0.4197056 0.4197056 0.3833369 0.4495527 0.4008495 0.4008495 0.3833369 0.4495527 0.341844 0.4717311 0.3685216 0.4273802 0.4008495 0.4008495 0.3833369 0.4495527 0.3685216 0.4273802 0.341844 0.4717311 0.3316391 0.4470943 0.3685216 0.4273802 0.4495527 0.3833369 0.4008495 0.4008495 0.4273802 0.3685216 0.4853885 0.2031783 0.4633333 0.25 0.4592342 0.2083806 0.4717311 0.341844 0.4273802 0.3685216 0.4470943 0.3316391 0.2916193 0.4592342 0.3316391 0.4470943 0.341844 0.4717311 0.341844 0.4717311 0.2968217 0.4853885 0.2916193 0.4592342 0.2968217 0.4853885 0.25 0.49 0.25 0.4633336 0.25 0.49 0.2031783 0.4853885 0.25 0.4633336 0.2031783 0.4853885 0.1581559 0.4717311 0.2083807 0.4592341 0.25 0.4633336 0.2031783 0.4853885 0.2083807 0.4592341 0.1581559 0.4717311 0.1166631 0.4495527 0.1314783 0.4273803 0.1166631 0.4495527 0.08029431 0.4197056 0.09915047 0.4008495 0.08029431 0.4197056 0.05044722 0.3833369 0.09915047 0.4008495 0.05044722 0.3833369 0.02826893 0.3418441 0.07261979 0.3685217 0.09915047 0.4008495 0.05044722 0.3833369 0.07261979 0.3685217 0.02826893 0.3418441 0.01461148 0.2968217 0.04076576 0.2916193 0.01461148 0.2968217 0.00999999 0.25 0.03666663 0.2500001 0.00999999 0.25 0.01461148 0.2031783 0.03666663 0.2500001 0.01461148 0.2031783 0.02826887 0.1581559 0.04076576 0.2083807 0.03666663 0.2500001 0.01461148 0.2031783 0.04076576 0.2083807 0.02826887 0.1581559 0.05044728 0.116663 0.07261985 0.1314783 0.05044728 0.116663 0.08029437 0.08029431 0.09915053 0.09915053 0.08029437 0.08029431 0.1166631 0.05044728 0.09915053 0.09915053 0.1166631 0.05044728 0.1581559 0.02826887 0.1314783 0.07261979 0.09915053 0.09915053 0.1166631 0.05044728 0.1314783 0.07261979 0.1581559 0.02826887 0.2031783 0.01461148 0.2083807 0.04076576 0.2031783 0.01461148 0.25 0.00999999 0.25 0.03666663 0.25 0.00999999 0.2968217 0.01461148 0.25 0.03666663 0.2968217 0.01461148 0.341844 0.02826887 0.2916193 0.04076576 0.25 0.03666663 0.2968217 0.01461148 0.2916193 0.04076576 0.341844 0.02826887 0.3833369 0.05044728 0.3685217 0.07261979 0.3833369 0.05044728 0.4197056 0.08029437 0.4008495 0.09915053 0.4197056 0.08029437 0.4495527 0.1166631 0.4008495 0.09915053 0.4495527 0.1166631 0.4717311 0.1581559 0.4273802 0.1314783 0.4008495 0.09915053 0.4495527 0.1166631 0.4273802 0.1314783 0.4717311 0.1581559 0.4470943 0.1683608 0.4273802 0.1314783 0.3833369 0.05044728 0.4008495 0.09915053 0.3685217 0.07261979 0.2031783 0.01461148 0.25 0.03666663 0.2083807 0.04076576 0.05044728 0.116663 0.09915053 0.09915053 0.07261985 0.1314783 0.01461148 0.2968217 0.03666663 0.2500001 0.04076576 0.2916193 0.1166631 0.4495527 0.09915047 0.4008495 0.1314783 0.4273803 0.2968217 0.4853885 0.25 0.4633336 0.2916193 0.4592342 0.1683608 0.4470944 0.2083807 0.4592341 0.1581559 0.4717311 0.341844 0.02826887 0.3685217 0.07261979 0.3316391 0.05290567 0.341844 0.02826887 0.3316391 0.05290567 0.2916193 0.04076576 0.1314783 0.4273803 0.1683608 0.4470944 0.1581559 0.4717311 0.1581559 0.02826887 0.2083807 0.04076576 0.1683608 0.05290567 0.05290567 0.3316392 0.07261979 0.3685217 0.02826893 0.3418441 0.04076576 0.2916193 0.05290567 0.3316392 0.02826893 0.3418441 0.1581559 0.02826887 0.1683608 0.05290567 0.1314783 0.07261979 0.02826887 0.1581559 0.07261985 0.1314783 0.05290567 0.1683608 0.0625 1 0.03125 1 0.03125 0.5 0.03125 1 0 1 0 0.5 0.5991506 0.09915053 0.6314783 0.07261979 0.6166631 0.05044728 0.6166631 0.05044728 0.5802944 0.08029431 0.5991506 0.09915053 0.5802944 0.08029431 0.5504474 0.116663 0.5726197 0.1314783 0.5504474 0.116663 0.5282689 0.1581559 0.5726197 0.1314783 0.5282689 0.1581559 0.5146116 0.2031783 0.5529058 0.1683608 0.5726197 0.1314783 0.5282689 0.1581559 0.5529058 0.1683608 0.5146116 0.2031783 0.51 0.25 0.5366666 0.25 0.51 0.25 0.5146116 0.2968217 0.5407658 0.2916193 0.5146116 0.2968217 0.5282689 0.3418441 0.5407658 0.2916193 0.5282689 0.3418441 0.5504473 0.3833369 0.5529057 0.3316392 0.5407658 0.2916193 0.5282689 0.3418441 0.5529057 0.3316392 0.5504473 0.3833369 0.5726199 0.3685216 0.5529057 0.3316392 0.51 0.25 0.5407658 0.2916193 0.5366666 0.25 0.5802944 0.08029431 0.5726197 0.1314783 0.5991506 0.09915053 0.5146116 0.2031783 0.5366666 0.25 0.5407657 0.2083806 0.5991506 0.4008495 0.5726199 0.3685216 0.5504473 0.3833369 0.5504473 0.3833369 0.5802944 0.4197056 0.5991506 0.4008495 0.5802944 0.4197056 0.6166631 0.4495527 0.6314783 0.4273802 0.6166631 0.4495527 0.658156 0.4717311 0.6314783 0.4273802 0.658156 0.4717311 0.7031784 0.4853885 0.6683608 0.4470943 0.6314783 0.4273802 0.658156 0.4717311 0.6683608 0.4470943 0.7031784 0.4853885 0.75 0.49 0.7500001 0.4633335 0.75 0.49 0.7968217 0.4853885 0.7916193 0.4592341 0.7968217 0.4853885 0.841844 0.4717311 0.7916193 0.4592341 0.841844 0.4717311 0.8833369 0.4495527 0.8316392 0.4470943 0.7916193 0.4592341 0.841844 0.4717311 0.8316392 0.4470943 0.8833369 0.4495527 0.9197056 0.4197056 0.9008495 0.4008494 0.9197056 0.4197056 0.9495527 0.3833369 0.9273803 0.3685217 0.9495527 0.3833369 0.9717311 0.341844 0.9273803 0.3685217 0.9717311 0.341844 0.9853885 0.2968217 0.9470946 0.3316392 0.9273803 0.3685217 0.9717311 0.341844 0.9470946 0.3316392 0.9853885 0.2968217 0.99 0.25 0.9633333 0.2500001 0.99 0.25 0.9853885 0.2031783 0.9592343 0.2083806 0.9853885 0.2031783 0.9717311 0.1581559 0.9592343 0.2083806 0.9717311 0.1581559 0.9495527 0.1166631 0.9470945 0.1683609 0.9592343 0.2083806 0.9717311 0.1581559 0.9470945 0.1683609 0.9495527 0.1166631 0.9197056 0.08029437 0.9008495 0.09915047 0.9197056 0.08029437 0.8833369 0.05044728 0.8685217 0.07261979 0.8833369 0.05044728 0.841844 0.02826887 0.8685217 0.07261979 0.841844 0.02826887 0.7968217 0.01461148 0.8316394 0.05290567 0.8685217 0.07261979 0.841844 0.02826887 0.8316394 0.05290567 0.7968217 0.01461148 0.75 0.00999999 0.75 0.03666663 0.75 0.00999999 0.7031784 0.01461148 0.7083809 0.04076576 0.7031784 0.01461148 0.658156 0.02826887 0.7083809 0.04076576 0.658156 0.02826887 0.6166631 0.05044728 0.6683609 0.05290567 0.7083809 0.04076576 0.658156 0.02826887 0.6683609 0.05290567 0.6166631 0.05044728 0.6314783 0.07261979 0.6683609 0.05290567 0.75 0.00999999 0.7083809 0.04076576 0.75 0.03666663 0.9197056 0.08029437 0.8685217 0.07261979 0.9008495 0.09915047 0.99 0.25 0.9592343 0.2083806 0.9633333 0.2500001 0.9197056 0.4197056 0.9273803 0.3685217 0.9008495 0.4008494 0.75 0.49 0.7916193 0.4592341 0.7500001 0.4633335 0.5802944 0.4197056 0.6314783 0.4273802 0.5991506 0.4008495 0.7083807 0.4592342 0.6683608 0.4470943 0.7031784 0.4853885 0.7968217 0.01461148 0.75 0.03666663 0.7916192 0.04076576 0.7968217 0.01461148 0.7916192 0.04076576 0.8316394 0.05290567 0.7500001 0.4633335 0.7083807 0.4592342 0.7031784 0.4853885 0.9495527 0.1166631 0.9008495 0.09915047 0.9273803 0.1314783 0.8685218 0.4273803 0.8316392 0.4470943 0.8833369 0.4495527 0.9008495 0.4008494 0.8685218 0.4273803 0.8833369 0.4495527 0.9495527 0.1166631 0.9273803 0.1314783 0.9470945 0.1683609 0.9853885 0.2968217 0.9633333 0.2500001 0.9592344 0.2916194 1 0.625 0.96875 0.625 0.96875 0.875 0.96875 0.625 0.9375 0.625 0.9375 0.875 0.90625 0.875 0.9375 0.875 0.9375 0.625 0.875 0.875 0.90625 0.875 0.90625 0.625 0.875 0.875 0.875 0.625 0.84375 0.625 0.84375 0.875 0.84375 0.625 0.8125 0.625 0.8125 0.875 0.8125 0.625 0.78125 0.625 0.78125 0.875 0.78125 0.625 0.75 0.625 0.75 0.875 0.75 0.625 0.71875 0.625 0.71875 0.875 0.71875 0.625 0.6875 0.625 0.6875 0.875 0.6875 0.625 0.65625 0.625 0.65625 0.875 0.65625 0.625 0.625 0.625 0.625 0.875 0.625 0.625 0.59375 0.625 0.59375 0.875 0.59375 0.625 0.5625 0.625 0.5625 0.875 0.5625 0.625 0.53125 0.625 0.53125 0.875 0.53125 0.625 0.5 0.625 0.46875 0.625 0.46875 0.875 0.5 0.875 0.46875 0.625 0.4375 0.625 0.4375 0.875 0.4375 0.875 0.4375 0.625 0.40625 0.625 0.40625 0.875 0.40625 0.625 0.375 0.625 0.34375 0.875 0.375 0.875 0.375 0.625 0.3125 0.875 0.34375 0.875 0.34375 0.625 0.28125 0.875 0.3125 0.875 0.3125 0.625 0.25 0.875 0.28125 0.875 0.28125 0.625 0.21875 0.875 0.25 0.875 0.25 0.625 0.1875 0.875 0.21875 0.875 0.21875 0.625 0.15625 0.875 0.1875 0.875 0.1875 0.625 0.125 0.875 0.15625 0.875 0.15625 0.625 0.09375 0.875 0.125 0.875 0.125 0.625 0.0625 0.875 0.09375 0.875 0.09375 0.625 0.03125 0.875 0.0625 0.875 0.0625 0.625 0 0.875 0.03125 0.875 0.03125 0.625 1 1 0.96875 1 0.96875 0.5 0.96875 1 0.9375 1 0.9375 0.5 0.9375 1 0.90625 1 0.90625 0.5 0.90625 1 0.875 1 0.875 0.5 0.875 1 0.84375 1 0.84375 0.5 0.84375 1 0.8125 1 0.8125 0.5 0.8125 1 0.78125 1 0.78125 0.5 0.78125 1 0.75 1 0.75 0.5 0.75 1 0.71875 1 0.71875 0.5 0.71875 1 0.6875 1 0.6875 0.5 0.6875 1 0.65625 1 0.65625 0.5 0.65625 1 0.625 1 0.625 0.5 0.625 1 0.59375 1 0.59375 0.5 0.59375 1 0.5625 1 0.5625 0.5 0.5625 1 0.53125 1 0.53125 0.5 0.53125 1 0.5 1 0.5 0.5 0.5 1 0.46875 1 0.46875 0.5 0.46875 1 0.4375 1 0.4375 0.5 0.4375 1 0.40625 1 0.40625 0.5 0.40625 1 0.375 1 0.375 0.5 0.375 1 0.34375 1 0.34375 0.5 0.34375 1 0.3125 1 0.3125 0.5 0.3125 1 0.28125 1 0.28125 0.5 0.28125 1 0.25 1 0.25 0.5 0.25 1 0.21875 1 0.21875 0.5 0.21875 1 0.1875 1 0.1875 0.5 0.1875 1 0.15625 1 0.15625 0.5 0.15625 1 0.125 1 0.125 0.5 0.125 1 0.09375 1 0.09375 0.5 0.09375 1 0.0625 1 0.0625 0.5 0.341844 0.4717311 0.2968217 0.4853885 0.25 0.49 0.25 0.49 0.2031783 0.4853885 0.1581559 0.4717311 0.1581559 0.4717311 0.1166631 0.4495527 0.08029431 0.4197056 0.08029431 0.4197056 0.05044722 0.3833368 0.02826893 0.341844 0.02826893 0.341844 0.01461154 0.2968217 0.00999999 0.25 0.00999999 0.25 0.01461154 0.2031783 0.02826893 0.341844 0.01461154 0.2031783 0.02826893 0.1581559 0.02826893 0.341844 0.02826893 0.1581559 0.05044728 0.1166631 0.08029437 0.08029437 0.08029437 0.08029437 0.1166631 0.05044728 0.02826893 0.1581559 0.1166631 0.05044728 0.1581559 0.02826893 0.02826893 0.1581559 0.1581559 0.02826893 0.2031783 0.01461148 0.25 0.00999999 0.25 0.00999999 0.2968217 0.01461148 0.341844 0.02826893 0.341844 0.02826893 0.3833369 0.05044728 0.4197056 0.08029437 0.4197056 0.08029437 0.4495527 0.1166631 0.341844 0.02826893 0.4495527 0.1166631 0.4717311 0.158156 0.341844 0.02826893 0.4717311 0.158156 0.4853885 0.2031783 0.4717311 0.341844 0.4853885 0.2031783 0.49 0.25 0.4717311 0.341844 0.49 0.25 0.4853885 0.2968217 0.4717311 0.341844 0.4717311 0.341844 0.4495527 0.3833369 0.341844 0.4717311 0.4495527 0.3833369 0.4197056 0.4197056 0.341844 0.4717311 0.4197056 0.4197056 0.3833369 0.4495527 0.341844 0.4717311 0.341844 0.4717311 0.25 0.49 0.1581559 0.4717311 0.1581559 0.4717311 0.08029431 0.4197056 0.02826893 0.341844 0.1581559 0.02826893 0.25 0.00999999 0.4717311 0.158156 0.25 0.00999999 0.341844 0.02826893 0.4717311 0.158156 0.341844 0.4717311 0.1581559 0.4717311 0.1581559 0.02826893 0.1581559 0.4717311 0.02826893 0.341844 0.1581559 0.02826893 0.02826893 0.341844 0.02826893 0.1581559 0.1581559 0.02826893 0.4717311 0.158156 0.4717311 0.341844 0.341844 0.4717311 0.0625 1 0.03125 1 0.03125 0.5 0.03125 1 0 1 0 0.5 0.7031784 0.4853885 0.75 0.49 0.7968217 0.4853885 0.7968217 0.4853885 0.841844 0.4717311 0.8833369 0.4495527 0.8833369 0.4495527 0.9197056 0.4197056 0.9495527 0.3833369 0.9495527 0.3833369 0.9717311 0.341844 0.9853885 0.2968217 0.9853885 0.2968217 0.99 0.25 0.9853885 0.2031783 0.9853885 0.2031783 0.9717311 0.158156 0.9495527 0.1166631 0.9495527 0.1166631 0.9197056 0.08029437 0.8833369 0.05044728 0.8833369 0.05044728 0.841844 0.02826893 0.9495527 0.1166631 0.841844 0.02826893 0.7968217 0.01461148 0.9495527 0.1166631 0.7968217 0.01461148 0.75 0.00999999 0.6166631 0.05044728 0.75 0.00999999 0.7031784 0.01461148 0.6166631 0.05044728 0.7031784 0.01461148 0.658156 0.02826893 0.6166631 0.05044728 0.6166631 0.05044728 0.5802944 0.08029437 0.5146116 0.2031783 0.5802944 0.08029437 0.5504474 0.1166631 0.5146116 0.2031783 0.5504474 0.1166631 0.5282689 0.1581559 0.5146116 0.2031783 0.5146116 0.2031783 0.51 0.25 0.5146116 0.2968217 0.5146116 0.2968217 0.5282689 0.341844 0.5146116 0.2031783 0.5282689 0.341844 0.5504473 0.3833368 0.5146116 0.2031783 0.5504473 0.3833368 0.5802944 0.4197056 0.6166631 0.4495527 0.6166631 0.4495527 0.658156 0.4717311 0.7031784 0.4853885 0.7031784 0.4853885 0.7968217 0.4853885 0.9853885 0.2968217 0.7968217 0.4853885 0.8833369 0.4495527 0.9853885 0.2968217 0.8833369 0.4495527 0.9495527 0.3833369 0.9853885 0.2968217 0.9853885 0.2968217 0.9853885 0.2031783 0.9495527 0.1166631 0.5504473 0.3833368 0.6166631 0.4495527 0.7031784 0.4853885 0.9853885 0.2968217 0.9495527 0.1166631 0.7968217 0.01461148 0.7968217 0.01461148 0.6166631 0.05044728 0.7031784 0.4853885 0.6166631 0.05044728 0.5146116 0.2031783 0.7031784 0.4853885 0.5146116 0.2031783 0.5504473 0.3833368 0.7031784 0.4853885</float_array>
          <technique_common>
            <accessor source="#Cylinder_003-mesh-map-0-array" count="1140" stride="2">
              <param name="S" type="float"/>
              <param name="T" type="float"/>
            </accessor>
          </technique_common>
        </source>
        <vertices id="Cylinder_003-mesh-vertices">
          <input semantic="POSITION" source="#Cylinder_003-mesh-positions"/>
        </vertices>
        <triangles count="380">
          <input semantic="VERTEX" source="#Cylinder_003-mesh-vertices" offset="0"/>
          <input semantic="NORMAL" source="#Cylinder_003-mesh-normals" offset="1"/>
          <input semantic="TEXCOORD" source="#Cylinder_003-mesh-map-0" offset="2" set="0"/>
          <p>1 0 0 2 0 1 0 0 2 3 1 3 4 1 4 2 1 5 5 2 6 6 2 7 4 2 8 7 3 9 8 3 10 6 3 11 9 4 12 10 4 13 8 4 14 11 5 15 12 5 16 10 5 17 13 6 18 14 6 19 12 6 20 15 7 21 16 7 22 14 7 23 17 8 24 18 8 25 16 8 26 19 9 27 20 9 28 18 9 29 21 10 30 22 10 31 20 10 32 23 11 33 24 11 34 22 11 35 25 12 36 26 12 37 24 12 38 27 13 39 28 13 40 26 13 41 29 14 42 30 14 43 28 14 44 31 15 45 32 15 46 30 15 47 33 16 48 34 16 49 32 16 50 35 17 51 36 17 52 34 17 53 37 18 54 38 18 55 36 18 56 39 19 57 40 19 58 38 19 59 41 20 60 42 20 61 40 20 62 43 21 63 44 21 64 42 21 65 45 22 66 46 22 67 44 22 68 47 23 69 48 23 70 46 23 71 49 24 72 50 24 73 48 24 74 51 25 75 52 25 76 50 25 77 53 26 78 54 26 79 52 26 80 55 27 81 56 27 82 54 27 83 57 28 84 58 28 85 56 28 86 59 29 87 60 29 88 58 29 89 13 30 90 76 30 91 75 30 92 45 31 93 99 31 94 96 31 95 61 32 96 62 32 97 60 32 98 63 33 99 0 33 100 62 33 101 46 34 102 110 34 103 101 34 104 14 34 105 107 34 106 100 34 107 109 35 108 67 35 109 88 35 110 66 36 111 73 36 112 67 36 113 68 18 114 71 18 115 79 18 116 70 37 117 79 37 118 89 37 119 70 38 120 92 38 121 69 38 122 69 39 123 100 39 124 76 39 125 76 40 126 107 40 127 75 40 128 75 41 129 111 41 130 72 41 131 72 42 132 113 42 133 74 42 134 74 43 135 117 43 136 93 43 137 93 44 138 118 44 139 106 44 140 106 45 141 115 45 142 104 45 143 104 46 144 116 46 145 105 46 146 105 47 147 114 47 148 108 47 149 108 48 150 126 48 151 102 48 152 102 49 153 121 49 154 103 49 155 64 50 156 103 50 157 121 50 158 64 51 159 78 51 160 65 51 161 78 52 162 81 52 163 85 52 164 85 53 165 90 53 166 91 53 167 97 54 168 90 54 169 98 54 170 99 55 171 98 55 172 101 55 173 96 56 174 101 56 175 110 56 176 94 57 177 110 57 178 112 57 179 95 58 180 112 58 181 119 58 182 82 59 183 119 59 184 120 59 185 80 60 186 120 60 187 122 60 188 84 61 189 122 61 190 123 61 191 83 62 192 123 62 193 125 62 194 87 63 195 125 63 196 124 63 197 86 64 198 124 64 199 127 64 200 88 65 201 127 65 202 109 65 203 129 66 204 130 66 205 128 66 206 131 67 207 132 67 208 130 67 209 133 68 210 134 68 211 132 68 212 135 69 213 136 69 214 134 69 215 137 70 216 138 70 217 136 70 218 139 71 219 140 71 220 138 71 221 141 72 222 142 72 223 140 72 224 143 73 225 144 73 226 142 73 227 145 74 228 146 74 229 144 74 230 147 75 231 148 75 232 146 75 233 149 76 234 150 76 235 148 76 236 151 77 237 152 77 238 150 77 239 153 78 240 154 78 241 152 78 242 155 79 243 156 79 244 154 79 245 157 80 246 158 80 247 156 80 248 159 81 249 160 81 250 158 81 251 161 82 252 162 82 253 160 82 254 163 83 255 164 83 256 162 83 257 165 84 258 166 84 259 164 84 260 167 85 261 168 85 262 166 85 263 169 86 264 170 86 265 168 86 266 171 87 267 172 87 268 170 87 269 173 88 270 174 88 271 172 88 272 175 89 273 176 89 274 174 89 275 177 90 276 178 90 277 176 90 278 179 91 279 180 91 280 178 91 281 181 92 282 182 92 283 180 92 284 183 93 285 184 93 286 182 93 287 185 94 288 186 94 289 184 94 290 187 95 291 188 95 292 186 95 293 165 96 294 149 96 295 133 96 296 189 97 297 190 97 298 188 97 299 191 98 300 128 98 301 190 98 302 190 99 303 142 99 304 158 99 305 1 0 306 3 0 307 2 0 308 3 100 309 5 100 310 4 100 311 5 101 312 7 101 313 6 101 314 7 3 315 9 3 316 8 3 317 9 102 318 11 102 319 10 102 320 11 103 321 13 103 322 12 103 323 13 6 324 15 6 325 14 6 326 15 104 327 17 104 328 16 104 329 17 105 330 19 105 331 18 105 332 19 106 333 21 106 334 20 106 335 21 10 336 23 10 337 22 10 338 23 11 339 25 11 340 24 11 341 25 107 342 27 107 343 26 107 344 27 13 345 29 13 346 28 13 347 29 14 348 31 14 349 30 14 350 31 15 351 33 15 352 32 15 353 33 16 354 35 16 355 34 16 356 35 108 357 37 108 358 36 108 359 37 18 360 39 18 361 38 18 362 39 19 363 41 19 364 40 19 365 41 20 366 43 20 367 42 20 368 43 109 369 45 109 370 44 109 371 45 22 372 47 22 373 46 22 374 47 110 375 49 110 376 48 110 377 49 111 378 51 111 379 50 111 380 51 112 381 53 112 382 52 112 383 53 26 384 55 26 385 54 26 386 55 113 387 57 113 388 56 113 389 57 28 390 59 28 391 58 28 392 59 29 393 61 29 394 60 29 395 74 114 396 93 114 397 21 114 398 21 115 399 19 115 400 74 115 401 19 116 402 17 116 403 72 116 404 17 117 405 15 117 406 72 117 407 15 30 408 13 30 409 75 30 410 72 118 411 15 118 412 75 118 413 13 30 414 11 30 415 69 30 416 11 30 417 9 30 418 70 30 419 9 30 420 7 30 421 70 30 422 7 119 423 5 119 424 68 119 425 70 30 426 7 30 427 68 30 428 5 120 429 73 120 430 68 120 431 11 30 432 70 30 433 69 30 434 19 30 435 72 30 436 74 30 437 13 30 438 69 30 439 76 30 440 67 30 441 73 30 442 5 30 443 5 30 444 3 30 445 67 30 446 3 121 447 1 121 448 88 121 449 1 30 450 63 30 451 88 30 452 63 30 453 61 30 454 86 30 455 88 30 456 63 30 457 86 30 458 61 30 459 59 30 460 83 30 461 59 122 462 57 122 463 84 122 464 57 30 465 55 30 466 84 30 467 55 30 468 53 30 469 80 30 470 84 30 471 55 30 472 80 30 473 53 123 474 51 123 475 95 123 476 51 124 477 49 124 478 94 124 479 49 30 480 47 30 481 94 30 482 47 30 483 45 30 484 96 30 485 94 125 486 47 125 487 96 125 488 45 30 489 43 30 490 97 30 491 43 126 492 41 126 493 91 126 494 41 30 495 39 30 496 91 30 497 39 30 498 37 30 499 85 30 500 91 127 501 39 127 502 85 127 503 37 30 504 35 30 505 65 30 506 35 30 507 33 30 508 103 30 509 33 30 510 31 30 511 103 30 512 31 128 513 29 128 514 102 128 515 103 30 516 31 30 517 102 30 518 29 129 519 27 129 520 105 129 521 27 30 522 25 30 523 104 30 524 25 128 525 23 128 526 104 128 527 23 30 528 21 30 529 106 30 530 104 130 531 23 130 532 106 130 533 21 30 534 93 30 535 106 30 536 27 30 537 104 30 538 105 30 539 35 30 540 103 30 541 65 30 542 43 30 543 91 30 544 97 30 545 51 30 546 94 30 547 95 30 548 59 131 549 84 131 550 83 131 551 3 132 552 88 132 553 67 132 554 87 30 555 86 30 556 61 30 557 29 133 558 105 133 559 108 133 560 29 30 561 108 30 562 102 30 563 83 134 564 87 134 565 61 134 566 37 30 567 65 30 568 78 30 569 82 135 570 80 135 571 53 135 572 95 136 573 82 136 574 53 136 575 37 137 576 78 137 577 85 137 578 45 138 579 97 138 580 99 138 581 61 32 582 63 32 583 62 32 584 63 33 585 1 33 586 0 33 587 90 139 588 81 139 589 38 139 590 38 140 591 40 140 592 90 140 593 40 34 594 42 34 595 98 34 596 42 34 597 44 34 598 98 34 599 44 141 600 46 141 601 101 141 602 98 142 603 44 142 604 101 142 605 46 143 606 48 143 607 112 143 608 48 144 609 50 144 610 119 144 611 50 34 612 52 34 613 119 34 614 52 145 615 54 145 616 120 145 617 119 146 618 52 146 619 120 146 620 54 147 621 122 147 622 120 147 623 48 34 624 119 34 625 112 34 626 40 148 627 98 148 628 90 148 629 46 34 630 112 34 631 110 34 632 123 34 633 122 34 634 54 34 635 54 34 636 56 34 637 123 34 638 56 34 639 58 34 640 125 34 641 58 34 642 60 34 643 125 34 644 60 34 645 62 34 646 124 34 647 125 149 648 60 149 649 124 149 650 62 34 651 0 34 652 109 34 653 0 34 654 2 34 655 66 34 656 2 34 657 4 34 658 66 34 659 4 150 660 6 150 661 71 150 662 66 34 663 4 34 664 71 34 665 6 34 666 8 34 667 89 34 668 8 34 669 10 34 670 92 34 671 10 34 672 12 34 673 92 34 674 12 151 675 14 151 676 100 151 677 92 152 678 12 152 679 100 152 680 14 153 681 16 153 682 111 153 683 16 154 684 18 154 685 113 154 686 18 34 687 20 34 688 113 34 689 20 34 690 22 34 691 117 34 692 113 155 693 20 155 694 117 155 695 22 156 696 24 156 697 115 156 698 24 34 699 26 34 700 116 34 701 26 157 702 28 157 703 116 157 704 28 158 705 30 158 706 114 158 707 116 139 708 28 139 709 114 139 710 30 34 711 32 34 712 121 34 713 32 34 714 34 34 715 64 34 716 34 159 717 36 159 718 64 159 719 36 160 720 38 160 721 77 160 722 64 34 723 36 34 724 77 34 725 38 161 726 81 161 727 77 161 728 32 34 729 64 34 730 121 34 731 24 34 732 116 34 733 115 34 734 16 162 735 113 162 736 111 162 737 8 34 738 92 34 739 89 34 740 0 163 741 66 163 742 109 163 743 56 34 744 125 34 745 123 34 746 127 34 747 124 34 748 62 34 749 30 34 750 121 34 751 126 34 752 30 34 753 126 34 754 114 34 755 109 34 756 127 34 757 62 34 758 22 34 759 115 34 760 118 34 761 79 164 762 71 164 763 6 164 764 89 34 765 79 34 766 6 34 767 22 165 768 118 165 769 117 165 770 14 166 771 111 166 772 107 166 773 109 35 774 66 35 775 67 35 776 66 167 777 71 167 778 73 167 779 68 168 780 73 168 781 71 168 782 70 169 783 68 169 784 79 169 785 70 170 786 89 170 787 92 170 788 69 39 789 92 39 790 100 39 791 76 171 792 100 171 793 107 171 794 75 172 795 107 172 796 111 172 797 72 173 798 111 173 799 113 173 800 74 43 801 113 43 802 117 43 803 93 44 804 117 44 805 118 44 806 106 27 807 118 27 808 115 27 809 104 46 810 115 46 811 116 46 812 105 174 813 116 174 814 114 174 815 108 175 816 114 175 817 126 175 818 102 176 819 126 176 820 121 176 821 64 177 822 65 177 823 103 177 824 64 178 825 77 178 826 78 178 827 78 52 828 77 52 829 81 52 830 85 179 831 81 179 832 90 179 833 97 180 834 91 180 835 90 180 836 99 181 837 97 181 838 98 181 839 96 182 840 99 182 841 101 182 842 94 183 843 96 183 844 110 183 845 95 184 846 94 184 847 112 184 848 82 59 849 95 59 850 119 59 851 80 185 852 82 185 853 120 185 854 84 186 855 80 186 856 122 186 857 83 187 858 84 187 859 123 187 860 87 63 861 83 63 862 125 63 863 86 188 864 87 188 865 124 188 866 88 65 867 86 65 868 127 65 869 129 189 870 131 189 871 130 189 872 131 190 873 133 190 874 132 190 875 133 191 876 135 191 877 134 191 878 135 192 879 137 192 880 136 192 881 137 193 882 139 193 883 138 193 884 139 194 885 141 194 886 140 194 887 141 195 888 143 195 889 142 195 890 143 196 891 145 196 892 144 196 893 145 197 894 147 197 895 146 197 896 147 198 897 149 198 898 148 198 899 149 199 900 151 199 901 150 199 902 151 200 903 153 200 904 152 200 905 153 201 906 155 201 907 154 201 908 155 202 909 157 202 910 156 202 911 157 203 912 159 203 913 158 203 914 159 204 915 161 204 916 160 204 917 161 205 918 163 205 919 162 205 920 163 206 921 165 206 922 164 206 923 165 207 924 167 207 925 166 207 926 167 208 927 169 208 928 168 208 929 169 209 930 171 209 931 170 209 932 171 210 933 173 210 934 172 210 935 173 211 936 175 211 937 174 211 938 175 212 939 177 212 940 176 212 941 177 213 942 179 213 943 178 213 944 179 214 945 181 214 946 180 214 947 181 215 948 183 215 949 182 215 950 183 216 951 185 216 952 184 216 953 185 217 954 187 217 955 186 217 956 187 218 957 189 218 958 188 218 959 133 96 960 131 96 961 129 96 962 129 96 963 191 96 964 189 96 965 189 219 966 187 219 967 185 219 968 185 96 969 183 96 970 181 96 971 181 220 972 179 220 973 177 220 974 177 96 975 175 96 976 181 96 977 175 221 978 173 221 979 181 221 980 173 96 981 171 96 982 169 96 983 169 222 984 167 222 985 173 222 986 167 96 987 165 96 988 173 96 989 165 96 990 163 96 991 161 96 992 161 96 993 159 96 994 157 96 995 157 223 996 155 223 997 153 223 998 153 96 999 151 96 1000 157 96 1001 151 96 1002 149 96 1003 157 96 1004 149 224 1005 147 224 1006 141 224 1007 147 225 1008 145 225 1009 141 225 1010 145 226 1011 143 226 1012 141 226 1013 141 96 1014 139 96 1015 133 96 1016 139 96 1017 137 96 1018 133 96 1019 137 96 1020 135 96 1021 133 96 1022 133 227 1023 129 227 1024 189 227 1025 189 96 1026 185 96 1027 181 96 1028 165 96 1029 161 96 1030 149 96 1031 161 96 1032 157 96 1033 149 96 1034 133 96 1035 189 96 1036 165 96 1037 189 96 1038 181 96 1039 165 96 1040 181 96 1041 173 96 1042 165 96 1043 149 96 1044 141 96 1045 133 96 1046 189 228 1047 191 228 1048 190 228 1049 191 229 1050 129 229 1051 128 229 1052 190 230 1053 128 230 1054 130 230 1055 130 99 1056 132 99 1057 134 99 1058 134 231 1059 136 231 1060 138 231 1061 138 99 1062 140 99 1063 142 99 1064 142 99 1065 144 99 1066 146 99 1067 146 99 1068 148 99 1069 150 99 1070 150 99 1071 152 99 1072 154 99 1073 154 99 1074 156 99 1075 150 99 1076 156 232 1077 158 232 1078 150 232 1079 158 99 1080 160 99 1081 166 99 1082 160 99 1083 162 99 1084 166 99 1085 162 233 1086 164 233 1087 166 233 1088 166 99 1089 168 99 1090 174 99 1091 168 99 1092 170 99 1093 174 99 1094 170 99 1095 172 99 1096 174 99 1097 174 99 1098 176 99 1099 178 99 1100 178 99 1101 180 99 1102 174 99 1103 180 99 1104 182 99 1105 174 99 1106 182 234 1107 184 234 1108 186 234 1109 186 235 1110 188 235 1111 190 235 1112 190 99 1113 130 99 1114 142 99 1115 130 236 1116 134 236 1117 142 236 1118 134 237 1119 138 237 1120 142 237 1121 142 99 1122 146 99 1123 150 99 1124 182 238 1125 186 238 1126 190 238 1127 142 239 1128 150 239 1129 158 239 1130 158 240 1131 166 240 1132 190 240 1133 166 241 1134 174 241 1135 190 241 1136 174 99 1137 182 99 1138 190 99 1139</p>
        </triangles>
      </mesh>
    </geometry>
  </library_geometries>
  <library_visual_scenes>
    <visual_scene id="Scene" name="Scene">
      <node id="Obstacle_Complete" name="Obstacle_Complete" type="NODE">
        <matrix sid="transform">1 0 0 0 0 -4.37114e-8 -1 0 0 1 -4.37114e-8 1.7 0 0 0 1</matrix>
        <instance_geometry url="#Cylinder_003-mesh" name="Obstacle_Complete"/>
      </node>
    </visual_scene>
  </library_visual_scenes>
  <scene>
    <instance_visual_scene url="#Scene"/>
  </scene>
</COLLADA>