<?xml version="1.0" encoding="utf-8"?>
<COLLADA xmlns="http://www.collada.org/2005/11/COLLADASchema" version="1.4.1" xmlns:xsi="http://www.w3.org/2001/XMLSchema-instance">
  <asset>
    <contributor>
      <author>Blender User</author>
      <authoring_tool>Blender 3.0.1 commit date:2022-01-25, commit time:17:19, hash:dc2d18018171</authoring_tool>
    </contributor>
    <created>2026-02-06T14:31:48</created>
    <modified>2026-02-06T14:31:48</modified>
    <unit name="meter" meter="1"/>
    <up_axis>Z_UP</up_axis>
  </asset>
  <library_images/>
  <library_geometries>
    <geometry id="Cube_019-mesh" name="Cube.019">
      <mesh>
        <source id="Cube_019-mesh-positions">
          <float_array id="Cube_019-mesh-positions-array" count="600">-0.5 -0.5 -0.5 -0.5 -0.5 0.5 -0.5 0.5 -0.5 -0.5 0.5 0.5 0.5 -0.5 -0.5 0.5 -0.5 0.5 0.5 0.5 -0.5 0.5 0.5 0.5 0 0.04999995 0.4999999 0 0.04999995 0.7333332 0.009754478 0.04903924 0.4999999 0.009754478 0.04903924 0.7333332 0.01913416 0.04619395 0.4999999 0.01913416 0.04619395 0.7333332 0.0277785 0.04157346 0.4999999 0.0277785 0.04157346 0.7333332 0.03535532 0.03535532 0.4999999 0.03535532 0.03535532 0.7333332 0.04157346 0.0277785 0.4999999 0.04157346 0.0277785 0.7333332 0.04619395 0.01913416 0.4999999 0.04619395 0.01913416 0.7333332 0.04903924 0.009754478 0.4999999 0.04903924 0.009754478 0.7333332 0.04999995 0 0.4999999 0.04999995 0 0.7333332 0.04903924 -0.009754478 0.4999999 0.04903924 -0.009754478 0.7333332 0.04619395 -0.01913416 0.4999999 0.04619395 -0.01913416 0.7333332 0.04157346 -0.0277785 0.4999999 0.04157346 -0.0277785 0.7333332 0.03535532 -0.03535532 0.4999999 0.03535532 -0.03535532 0.7333332 0.0277785 -0.04157346 0.4999999 0.0277785 -0.04157346 0.7333332 0.01913416 -0.04619395 0.4999999 0.01913416 -0.04619395 0.7333332 0.009754478 -0.04903924 0.4999999 0.009754478 -0.04903924 0.7333332 0 -0.04999995 0.4999999 0 -0.04999995 0.7333332 -0.009754478 -0.04903924 0.4999999 -0.009754478 -0.04903924 0.7333332 -0.01913416 -0.04619395 0.4999999 -0.01913416 -0.04619395 0.7333332 -0.0277785 -0.04157346 0.4999999 -0.0277785 -0.04157346 0.7333332 -0.03535532 -0.03535532 0.4999999 -0.03535532 -0.03535532 0.7333332 -0.04157346 -0.0277785 0.4999999 -0.04157346 -0.0277785 0.7333332 -0.04619395 -0.01913416 0.4999999 -0.04619395 -0.01913416 0.7333332 -0.04903924 -0.009754478 0.4999999 -0.04903924 -0.009754478 0.7333332 -0.04999995 0 0.4999999 -0.04999995 0 0.7333332 -0.04903924 0.009754478 0.4999999 -0.04903924 0.009754478 0.7333332 -0.04619395 0.01913416 0.4999999 -0.04619395 0.01913416 0.7333332 -0.04157346 0.0277785 0.4999999 -0.04157346 0.0277785 0.7333332 -0.03535532 0.03535532 0.4999999 -0.03535532 0.03535532 0.7333332 -0.0277785 0.04157346 0.4999999 -0.0277785 0.04157346 0.7333332 -0.01913416 0.04619395 0.4999999 -0.01913416 0.04619395 0.7333332 -0.009754478 0.04903924 0.4999999 -0.009754478 0.04903924 0.7333332 0 0.01666665 1.266666 0 -0.01666665 1.266666 0.05202406 0.01666665 1.261542 0.05202406 -0.01666665 1.261542 0.1020489 0.01666665 1.246368 0.1020489 -0.01666665 1.246368 0.148152 0.01666665 1.221725 0.148152 -0.01666665 1.221725 0.1885617 0.01666665 1.188562 0.1885617 -0.01666665 1.188562 0.2217252 0.01666665 1.148152 0.2217252 -0.01666665 1.148152 0.2463678 0.01666665 1.102049 0.2463678 -0.01666665 1.102049 0.2615427 0.01666665 1.052024 0.2615427 -0.01666665 1.052024 0.2666666 0.01666665 0.9999998 0.2666666 -0.01666665 0.9999998 0.2615427 0.01666665 0.9479757 0.2615427 -0.01666665 0.9479757 0.2463678 0.01666665 0.8979509 0.2463678 -0.01666665 0.8979509 0.2217252 0.01666665 0.8518477 0.2217252 -0.01666665 0.8518477 0.1885617 0.01666665 0.811438 0.1885617 -0.01666665 0.811438 0.148152 0.01666665 0.7782745 0.148152 -0.01666665 0.7782745 0.1020489 0.01666665 0.753632 0.1020489 -0.01666665 0.753632 0.05202406 0.01666665 0.7384571 0.05202406 -0.01666665 0.7384571 0 0.01666665 0.7333331 0 -0.01666665 0.7333331 -0.052024 0.01666665 0.7384571 -0.052024 -0.01666665 0.7384571 -0.1020489 0.01666665 0.753632 -0.1020489 -0.01666665 0.753632 -0.1481521 0.01666665 0.7782746 -0.1481521 -0.01666665 0.7782746 -0.1885617 0.01666665 0.811438 -0.1885617 -0.01666665 0.811438 -0.2217251 0.01666665 0.8518477 -0.2217251 -0.01666665 0.8518477 -0.2463678 0.01666665 0.8979508 -0.2463678 -0.01666665 0.8979508 -0.2615427 0.01666665 0.9479756 -0.2615427 -0.01666665 0.9479756 -0.2666666 0.01666665 0.9999998 -0.2666666 -0.01666665 0.9999998 -0.2615427 0.01666665 1.052024 -0.2615427 -0.01666665 1.052024 -0.2463678 0.01666665 1.102049 -0.2463678 -0.01666665 1.102049 -0.2217252 0.01666665 1.148152 -0.2217252 -0.01666665 1.148152 -0.1885618 0.01666665 1.188562 -0.1885618 -0.01666665 1.188562 -0.1481521 0.01666665 1.221725 -0.1481521 -0.01666665 1.221725 -0.1020489 0.01666665 1.246368 -0.1020489 -0.01666665 1.246368 -0.052024 0.01666665 1.261542 -0.052024 -0.01666665 1.261542 0.1388925 0.01666665 0.7921324 0.1388925 -0.01666665 0.7921324 0.2451963 0.01666665 0.9512272 0.09567081 0.01666665 0.7690299 0.09567081 -0.01666665 0.7690299 0 -0.01666665 1.25 -0.1767767 -0.01666665 1.176776 -0.04877251 0.01666665 0.7548034 0.04877257 0.01666665 0.7548034 0.04877257 -0.01666665 0.7548034 -0.25 -0.01666665 0.9999998 -0.2078673 0.01666665 0.8611072 -0.1767767 -0.01666665 0.8232231 -0.2451963 0.01666665 1.048772 0 0.01666665 0.7499998 0 -0.01666665 0.7499998 -0.1388925 0.01666665 1.207867 0.1767767 -0.01666665 0.8232231 0.25 -0.01666665 0.9999998 -0.04877251 -0.01666665 0.7548034 0 0.01666665 1.25 0.09567081 0.01666665 1.23097 0.1767767 0.01666665 1.176776 0.2309699 0.01666665 1.095671 0.1767767 -0.01666665 1.176776 0.1388925 0.01666665 1.207867 -0.09567081 0.01666665 0.7690299 -0.09567081 -0.01666665 0.7690299 -0.2078674 -0.01666665 1.138892 -0.1388925 -0.01666665 1.207867 -0.09567081 -0.01666665 1.23097 -0.04877251 -0.01666665 1.245196 0.04877257 -0.01666665 1.245196 0.1767767 0.01666665 0.8232231 -0.1388925 0.01666665 0.7921324 0.2309699 0.01666665 0.904329 0.2078674 0.01666665 0.8611072 0.25 0.01666665 0.9999998 -0.1388925 -0.01666665 0.7921324 -0.1767767 0.01666665 0.8232231 -0.2451963 -0.01666665 0.9512272 -0.2451963 -0.01666665 1.048772 -0.2078673 -0.01666665 0.8611072 -0.2309699 0.01666665 0.9043289 -0.2309699 -0.01666665 0.9043289 0.2078674 -0.01666665 0.8611072 -0.25 0.01666665 0.9999998 -0.2309698 0.01666665 1.095671 -0.1767767 0.01666665 1.176776 -0.09567081 0.01666665 1.23097 -0.2078674 0.01666665 1.138892 0.1388925 -0.01666665 1.207867 0.2078674 -0.01666665 1.138892 0.2451963 -0.01666665 1.048772 0.2451963 -0.01666665 0.9512272 -0.2451963 0.01666665 0.9512272 0.2309699 -0.01666665 1.095671 -0.04877251 0.01666665 1.245196 0.2451963 0.01666665 1.048772 -0.2309698 -0.01666665 1.095671 0.09567081 -0.01666665 1.23097 0.2309699 -0.01666665 0.904329 0.04877257 0.01666665 1.245196 0.2078674 0.01666665 1.138892</float_array>
          <technique_common>
            <accessor source="#Cube_019-mesh-positions-array" count="200" stride="3">
              <param name="X" type="float"/>
              <param name="Y" type="float"/>
              <param name="Z" type="float"/>
            </accessor>
          </technique_common>
        </source>
        <source id="Cube_019-mesh-normals">
          <float_array id="Cube_019-mesh-normals-array" count="999">-1 0 0 0 1 0 1 0 0 0 -1 0 0 0 -1 0 0 1 0.09801733 0.9951847 0 0.2902843 0.9569405 0 0.4713968 0.8819214 0 0.6343935 0.7730103 0 0.7730103 0.6343935 0 0.881921 0.4713974 0 0.9569403 0.2902849 0 0.9951847 0.09801769 0 0.9951848 -0.09801697 0 0.9569405 -0.2902842 0 0.8819215 -0.4713962 0 0.7730101 -0.6343938 0 0.6343935 -0.7730103 0 0.4713968 -0.8819214 0 0.2902846 -0.9569404 0 0.09801685 -0.9951848 0 -0.09801697 -0.9951848 0 -0.2902847 -0.9569404 0 -0.4713969 -0.8819212 0 -0.6343932 -0.7730106 0 -0.7730104 -0.6343934 0 -0.8819214 -0.4713968 0 -0.9569404 -0.2902848 0 -0.9951847 -0.09801769 0 -0.9951848 0.09801685 0 -0.9569404 0.2902848 0 -0.8819214 0.4713968 0 -0.7730109 0.6343928 0 -0.6343935 0.7730103 0 -0.4713968 0.8819214 0 7.45058e-7 0 1 -0.2902846 0.9569404 0 -0.09801697 0.9951848 0 7.45058e-7 0 -1 0.09802114 0 0.9951844 0.2902839 0 0.9569406 0.4713958 0 0.8819219 0.6343919 0 0.7730116 0.7730085 0 0.6343958 0.8819216 0 0.4713962 0.9569402 0 0.2902852 0.9951848 0 0.09801679 0.9951847 0 -0.09801721 0.9569402 0 -0.2902853 0.8819209 0 -0.4713976 0.7730103 0 -0.6343936 0.634393 0 -0.7730107 0.4713943 0 -0.8819227 0.2902858 0 -0.95694 0.098019 0 -0.9951846 -0.09801703 0 -0.9951848 -0.2902839 0 -0.9569407 -0.4713952 0 -0.8819221 -0.6343932 0 -0.7730106 -0.7730095 0 -0.6343945 -0.8819212 0 -0.4713971 -0.9569402 0 -0.2902853 -0.9951848 0 -0.09801703 -0.9951848 0 0.09801703 -0.9569404 0 0.2902846 -0.8819205 0 0.4713984 -0.7730095 0 0.6343946 -0.6343908 0 0.7730125 -0.4713943 0 0.8819226 0 -1 1.43214e-7 0 -1 -1.43215e-7 -0.2902877 0 0.9569394 -0.09801274 0 0.9951852 0 1 0 0 1 -1.43214e-7 -0.09801578 0 -0.995185 -0.2902831 0 -0.9569408 -0.4713977 0 -0.8819208 -0.6343939 0 -0.77301 -0.7730082 0 -0.6343961 -0.8819223 0 -0.4713948 -0.9569404 0 -0.2902845 -0.9951847 0 -0.09801739 -0.9951848 0 0.09801697 -0.9569406 0 0.2902839 -0.8819217 0 0.471396 -0.7730097 0 0.6343942 -0.6343952 0 0.773009 -0.471396 0 0.8819216 -0.2902821 0 0.9569411 -0.09801572 0 0.9951849 0.0980181 0 0.9951847 0.2902826 0 0.956941 0.4713959 0 0.8819217 0.6343938 0 0.77301 0.7730112 0 0.6343925 0.8819215 0 0.4713963 0.9569401 0 0.2902857 0.9951848 0 0.09801763 0.9951848 0 -0.09801721 0.9569405 0 -0.290284 0.8819201 0 -0.471399 0.7730093 0 -0.6343947 0.6343946 0 -0.7730094 0.4713977 0 -0.8819208 0.2902846 0 -0.9569404 0.09802037 0 -0.9951845 0.09801727 0.9951847 0 0.4713969 0.8819212 0 0.6343938 0.77301 0 0.7730102 0.6343937 0 0.8819216 0.4713961 0 0.9569405 0.2902842 0 0.9951848 0.09801685 0 0.9951847 -0.09801769 0 0.9569403 -0.2902849 0 0.8819214 -0.4713968 0 0.7730103 -0.6343935 0 0.6343936 -0.7730102 0 0.2902845 -0.9569404 0 0.09801685 -0.9951848 0 -0.09801697 -0.9951848 0 -0.2902845 -0.9569404 0 -0.4713971 -0.8819212 0 -0.6343937 -0.7730101 0 -0.7730095 -0.6343944 0 -0.8819211 -0.4713972 0 -0.9569407 -0.2902839 0 -0.9951848 -0.09801685 0 -0.9951847 0.09801769 0 -0.9569405 0.290284 0 -0.8819209 0.4713974 0 -0.7730104 0.6343933 0 -0.6343934 0.7730104 0 -0.4713966 0.8819214 0 8.38896e-6 0 1 -2.48445e-5 0 1 -4.96887e-5 0 1 -4.9689e-5 0 1 9.93783e-5 0 1 -4.96891e-5 0 1 -1.24223e-5 0 1 2.48445e-5 0 1 4.96888e-5 0 1 -4.96891e-5 0 1 4.96889e-5 0 1 -9.72143e-6 0 1 1.27885e-5 0 1 -9.72144e-6 0 1 7.45058e-7 0 1 -0.2902845 0.9569404 0 -4.96889e-5 0 -1 4.96891e-5 0 -1 8.38895e-6 0 -1 1.24222e-5 0 -1 1.71066e-5 0 -1 -2.48445e-5 0 -1 3.35557e-5 0 -1 -1.71066e-5 0 -1 8.98143e-6 0 -1 4.49072e-6 0 -1 -3.59746e-6 0 -1 -7.45058e-7 0 -1 0.09801268 0 0.9951852 0.2902879 0 0.9569394 0.4713971 0 0.8819212 0.6343954 0 0.7730087 0.7730127 0 0.6343906 0.881922 0 0.4713954 0.9569404 0 0.2902847 0.9951848 0 0.09801661 0.9951848 0 -0.09801661 0.9569405 0 -0.2902841 0.8819218 0 -0.4713956 0.7730103 0 -0.6343935 0.6343947 0 -0.7730094 0.4713979 0 -0.8819206 0.2902839 0 -0.9569406 0.09801691 0 -0.9951848 -0.09801912 0 -0.9951846 -0.2902858 0 -0.9569401 -0.4713972 0 -0.8819211 -0.6343935 0 -0.7730104 -0.7730105 0 -0.6343933 -0.8819212 0 -0.4713969 -0.9569404 0 -0.2902846 -0.9951849 0 -0.09801638 -0.9951848 0 0.09801679 -0.9569402 0 0.2902852 -0.8819209 0 0.4713976 -0.773012 0 0.6343915 -0.6343943 0 0.7730097 -0.4713956 0 0.881922 0 -1 0 0 -1 0 0 -1 -1.34263e-7 0 -1 0 0 -1 0 0 -1 -1.43214e-7 0 -1 0 0 -1 0 0 -1 0 0 -1 0 0 -1 0 0 -1 0 0 -1 -2.68527e-7 0 -1 0 0 -1 0 0 -1 -3.18876e-7 0 -1 0 0 -1 0 0 -1 0 0 -1 0 0 -1 0 0 -1 0 0 -1 -1.43214e-7 0 -1 0 0 -1 0 0 -1 0 0 -1 0 0 -1 0 0 -1 0 0 -1 0 0 -1 0 0 -1 0 0 -1 0 0 -1 0 0 -1 0 0 -1 0 0 -1 0 0 -1 0 0 -1 0 0 -1 0 0 -1 0 0 -1 0 0 -1 0 0 -1 1.34264e-7 0 -1 0 0 -1 0 0 -1 0 0 -1 0 0 -1 -2.8643e-7 0 -1 0 0 -1 0 0 -1 -1.43215e-7 0 -1 0 0 -1 -1.43215e-7 0 -1 0 -0.2902838 0 0.9569406 -0.0980212 0 0.9951844 0 1 0 0 1 2.34961e-7 0 1 -1.34263e-7 0 1 -1.34264e-7 0 1 1.34264e-7 0 1 0 0 1 0 0 1 0 0 1 0 0 1 0 0 1 1.43214e-7 0 1 0 0 1 0 0 1 0 0 1 0 0 1 0 0 1 0 0 1 2.68528e-7 0 1 1.84613e-7 0 1 0 0 1 0 0 1 1.34263e-7 0 1 0 0 1 0 0 1 0 0 1 0 0 1 0 0 1 0 0 1 0 0 1 0 0 1 0 0 1 0 0 1 0 0 1 0 0 1 0 0 1 0 0 1 0 0 1 0 0 1 0 0 1 0 0 1 1.43215e-7 0 1 0 0 1 0 0 1 -1.43214e-7 0 1 0 0 1 0 0 1 1.34263e-7 0 1 0 0 1 0 0 1 0 0 1 0 0 1 1.43214e-7 -0.09802031 0 -0.9951845 -0.2902847 0 -0.9569403 -0.6343923 0 -0.7730113 -0.7730107 0 -0.6343929 -0.8819208 0 -0.4713975 -0.9569407 0 -0.2902838 -0.9951848 0 -0.09801763 -0.9951848 0 0.09801763 -0.9569403 0 0.2902851 -0.8819211 0 0.4713971 -0.77301 0 0.6343941 -0.6343921 0 0.7730114 -0.4713979 0 0.8819208 -0.2902888 0 0.9569391 -0.09801805 0 0.9951847 0.09801584 0 0.9951849 0.2902893 0 0.9569391 0.4713977 0 0.8819208 0.6343922 0 0.7730115 0.7730092 0 0.6343949 0.881921 0 0.4713975 0.9569406 0 0.2902837 0.9951848 0 0.09801697 0.9951847 0 -0.09801739 0.9569404 0 -0.2902847 0.8819226 0 -0.4713944 0.7730119 0 -0.6343916 0.6343929 0 -0.7730109 0.2902862 0 -0.9569399 0.09801584 0 -0.995185</float_array>
          <technique_common>
            <accessor source="#Cube_019-mesh-normals-array" count="333" stride="3">
              <param name="X" type="float"/>
              <param name="Y" type="float"/>
              <param name="Z" type="float"/>
            </accessor>
          </technique_common>
        </source>
        <source id="Cube_019-mesh-map-0">
          <float_array id="Cube_019-mesh-map-0-array" count="2352">0.625 0 0.375 0.25 0.375 0 0.625 0.25 0.375 0.5 0.375 0.25 0.625 0.5 0.375 0.75 0.375 0.5 0.625 0.75 0.375 1 0.375 0.75 0.375 0.5 0.125 0.75 0.125 0.5 0.875 0.5 0.625 0.75 0.625 0.5 1 1 0.96875 0.5 1 0.5 0.96875 1 0.9375 0.5 0.96875 0.5 0.9375 1 0.90625 0.5 0.9375 0.5 0.90625 1 0.875 0.5 0.90625 0.5 0.875 1 0.84375 0.5 0.875 0.5 0.84375 1 0.8125 0.5 0.84375 0.5 0.8125 1 0.78125 0.5 0.8125 0.5 0.78125 1 0.75 0.5 0.78125 0.5 0.75 1 0.71875 0.5 0.75 0.5 0.71875 1 0.6875 0.5 0.71875 0.5 0.6875 1 0.65625 0.5 0.6875 0.5 0.65625 1 0.625 0.5 0.65625 0.5 0.625 1 0.59375 0.5 0.625 0.5 0.59375 1 0.5625 0.5 0.59375 0.5 0.5625 1 0.53125 0.5 0.5625 0.5 0.53125 1 0.5 0.5 0.53125 0.5 0.5 1 0.46875 0.5 0.5 0.5 0.46875 1 0.4375 0.5 0.46875 0.5 0.4375 1 0.40625 0.5 0.4375 0.5 0.40625 1 0.375 0.5 0.40625 0.5 0.375 1 0.34375 0.5 0.375 0.5 0.34375 1 0.3125 0.5 0.34375 0.5 0.3125 1 0.28125 0.5 0.3125 0.5 0.28125 1 0.25 0.5 0.28125 0.5 0.25 1 0.21875 0.5 0.25 0.5 0.21875 1 0.1875 0.5 0.21875 0.5 0.1875 1 0.15625 0.5 0.1875 0.5 0.15625 1 0.125 0.5 0.15625 0.5 0.125 1 0.09375 0.5 0.125 0.5 0.09375 1 0.0625 0.5 0.09375 0.5 0.02826893 0.341844 0.1581559 0.02826887 0.4717311 0.1581559 0.0625 1 0.03125 0.5 0.0625 0.5 0.03125 1 0 0.5 0.03125 0.5 0.7968217 0.01461148 0.5146116 0.2031783 0.7031784 0.4853885 1 1 0.96875 0.5 1 0.5 0.96875 1 0.9375 0.5 0.96875 0.5 0.9375 0.5 0.90625 1 0.90625 0.5 0.90625 0.5 0.875 1 0.875 0.5 0.875 0.5 0.84375 1 0.84375 0.5 0.84375 0.5 0.8125 1 0.8125 0.5 0.8125 0.5 0.78125 1 0.78125 0.5 0.78125 0.5 0.75 1 0.75 0.5 0.75 0.5 0.71875 1 0.71875 0.5 0.71875 0.5 0.6875 1 0.6875 0.5 0.6875 0.5 0.65625 1 0.65625 0.5 0.65625 0.5 0.625 1 0.625 0.5 0.625 0.5 0.59375 1 0.59375 0.5 0.59375 0.5 0.5625 1 0.5625 0.5 0.5625 1 0.53125 0.5 0.5625 0.5 0.53125 1 0.5 0.5 0.53125 0.5 0.5 1 0.46875 0.5 0.5 0.5 0.46875 1 0.4375 0.5 0.46875 0.5 0.4375 1 0.40625 0.5 0.4375 0.5 0.40625 1 0.375 0.5 0.40625 0.5 0.375 1 0.34375 0.5 0.375 0.5 0.34375 1 0.3125 0.5 0.34375 0.5 0.3125 1 0.28125 0.5 0.3125 0.5 0.28125 1 0.25 0.5 0.28125 0.5 0.25 1 0.21875 0.5 0.25 0.5 0.21875 1 0.1875 0.5 0.21875 0.5 0.1875 1 0.15625 0.5 0.1875 0.5 0.15625 1 0.125 0.5 0.15625 0.5 0.125 1 0.09375 0.5 0.125 0.5 0.09375 1 0.0625 0.5 0.09375 0.5 0.1166631 0.05044728 0.1638962 0.04212707 0.1249967 0.06291931 0.341844 0.4717311 0.3361037 0.4578729 0.3750033 0.4370807 0.0625 1 0.03125 0.5 0.0625 0.5 0.03125 1 0 0.5 0.03125 0.5 0.6638962 0.4578729 0.6249967 0.4370806 0.6166631 0.4495527 0.841844 0.02826893 0.8361038 0.04212707 0.8750033 0.06291931 0.96875 0.875 1 0.625 0.96875 0.625 0.9375 0.875 0.96875 0.625 0.9375 0.625 0.9375 0.625 0.90625 0.875 0.9375 0.875 0.875 0.875 0.90625 0.625 0.875 0.625 0.84375 0.875 0.875 0.625 0.84375 0.625 0.84375 0.625 0.8125 0.875 0.84375 0.875 0.8125 0.625 0.78125 0.875 0.8125 0.875 0.75 0.875 0.78125 0.625 0.75 0.625 0.75 0.625 0.71875 0.875 0.75 0.875 0.71875 0.625 0.6875 0.875 0.71875 0.875 0.6875 0.625 0.65625 0.875 0.6875 0.875 0.625 0.875 0.65625 0.625 0.625 0.625 0.625 0.625 0.59375 0.875 0.625 0.875 0.5625 0.875 0.59375 0.625 0.5625 0.625 0.53125 0.875 0.5625 0.625 0.53125 0.625 0.5 0.625 0.53125 0.875 0.53125 0.625 0.46875 0.625 0.5 0.875 0.5 0.625 0.4375 0.625 0.46875 0.875 0.46875 0.625 0.40625 0.625 0.4375 0.875 0.4375 0.625 0.40625 0.875 0.375 0.625 0.375 0.875 0.375 0.875 0.34375 0.625 0.34375 0.875 0.34375 0.875 0.3125 0.625 0.3125 0.875 0.28125 0.625 0.3125 0.875 0.3125 0.625 0.25 0.625 0.28125 0.875 0.28125 0.625 0.21875 0.625 0.25 0.875 0.25 0.625 0.21875 0.875 0.1875 0.625 0.1875 0.875 0.15625 0.625 0.1875 0.875 0.1875 0.625 0.125 0.625 0.15625 0.875 0.15625 0.625 0.09375 0.625 0.125 0.875 0.125 0.625 0.09375 0.625 0.0625 0.875 0.09375 0.875 0.03125 0.625 0.0625 0.875 0.0625 0.625 0 0.875 0.03125 0.625 0 0.625 0.625 0 0.625 0.25 0.375 0.25 0.625 0.25 0.625 0.5 0.375 0.5 0.625 0.5 0.625 0.75 0.375 0.75 0.625 0.75 0.625 1 0.375 1 0.375 0.5 0.375 0.75 0.125 0.75 0.875 0.5 0.875 0.75 0.625 0.75 1 1 0.96875 1 0.96875 0.5 0.96875 1 0.9375 1 0.9375 0.5 0.9375 1 0.90625 1 0.90625 0.5 0.90625 1 0.875 1 0.875 0.5 0.875 1 0.84375 1 0.84375 0.5 0.84375 1 0.8125 1 0.8125 0.5 0.8125 1 0.78125 1 0.78125 0.5 0.78125 1 0.75 1 0.75 0.5 0.75 1 0.71875 1 0.71875 0.5 0.71875 1 0.6875 1 0.6875 0.5 0.6875 1 0.65625 1 0.65625 0.5 0.65625 1 0.625 1 0.625 0.5 0.625 1 0.59375 1 0.59375 0.5 0.59375 1 0.5625 1 0.5625 0.5 0.5625 1 0.53125 1 0.53125 0.5 0.53125 1 0.5 1 0.5 0.5 0.5 1 0.46875 1 0.46875 0.5 0.46875 1 0.4375 1 0.4375 0.5 0.4375 1 0.40625 1 0.40625 0.5 0.40625 1 0.375 1 0.375 0.5 0.375 1 0.34375 1 0.34375 0.5 0.34375 1 0.3125 1 0.3125 0.5 0.3125 1 0.28125 1 0.28125 0.5 0.28125 1 0.25 1 0.25 0.5 0.25 1 0.21875 1 0.21875 0.5 0.21875 1 0.1875 1 0.1875 0.5 0.1875 1 0.15625 1 0.15625 0.5 0.15625 1 0.125 1 0.125 0.5 0.125 1 0.09375 1 0.09375 0.5 0.09375 1 0.0625 1 0.0625 0.5 0.341844 0.4717311 0.2968217 0.4853885 0.1581559 0.4717311 0.2968217 0.4853885 0.25 0.49 0.1581559 0.4717311 0.25 0.49 0.2031783 0.4853885 0.1581559 0.4717311 0.1581559 0.4717311 0.1166631 0.4495527 0.08029431 0.4197056 0.08029431 0.4197056 0.05044722 0.3833368 0.1581559 0.4717311 0.05044722 0.3833368 0.02826893 0.341844 0.1581559 0.4717311 0.02826893 0.341844 0.01461154 0.2968217 0.00999999 0.25 0.00999999 0.25 0.01461154 0.2031783 0.02826887 0.1581559 0.02826887 0.1581559 0.05044728 0.116663 0.08029437 0.08029437 0.08029437 0.08029437 0.1166631 0.05044728 0.1581559 0.02826887 0.1581559 0.02826887 0.2031783 0.01461148 0.25 0.00999999 0.25 0.00999999 0.2968217 0.01461148 0.341844 0.02826887 0.341844 0.02826887 0.3833369 0.05044728 0.4197056 0.08029437 0.4197056 0.08029437 0.4495527 0.1166631 0.4717311 0.1581559 0.4717311 0.1581559 0.4853885 0.2031783 0.49 0.25 0.49 0.25 0.4853885 0.2968217 0.4717311 0.1581559 0.4853885 0.2968217 0.4717311 0.341844 0.4717311 0.1581559 0.4717311 0.341844 0.4495527 0.3833369 0.4197056 0.4197056 0.4197056 0.4197056 0.3833369 0.4495527 0.341844 0.4717311 0.02826893 0.341844 0.00999999 0.25 0.1581559 0.02826887 0.00999999 0.25 0.02826887 0.1581559 0.1581559 0.02826887 0.02826887 0.1581559 0.08029437 0.08029437 0.1581559 0.02826887 0.1581559 0.02826887 0.25 0.00999999 0.4717311 0.1581559 0.25 0.00999999 0.341844 0.02826887 0.4717311 0.1581559 0.341844 0.02826887 0.4197056 0.08029437 0.4717311 0.1581559 0.4717311 0.341844 0.4197056 0.4197056 0.4717311 0.1581559 0.4197056 0.4197056 0.341844 0.4717311 0.4717311 0.1581559 0.341844 0.4717311 0.1581559 0.4717311 0.02826893 0.341844 0.341844 0.4717311 0.02826893 0.341844 0.4717311 0.1581559 0.0625 1 0.03125 1 0.03125 0.5 0.03125 1 0 1 0 0.5 0.7031784 0.4853885 0.75 0.49 0.7968217 0.4853885 0.7968217 0.4853885 0.841844 0.4717311 0.8833369 0.4495527 0.8833369 0.4495527 0.9197056 0.4197056 0.9853885 0.2968217 0.9197056 0.4197056 0.9495527 0.3833369 0.9853885 0.2968217 0.9495527 0.3833369 0.9717311 0.341844 0.9853885 0.2968217 0.9853885 0.2968217 0.99 0.25 0.9853885 0.2031783 0.9853885 0.2031783 0.9717311 0.1581559 0.9495527 0.1166631 0.9495527 0.1166631 0.9197056 0.08029437 0.7968217 0.01461148 0.9197056 0.08029437 0.8833369 0.05044728 0.7968217 0.01461148 0.8833369 0.05044728 0.841844 0.02826887 0.7968217 0.01461148 0.7968217 0.01461148 0.75 0.00999999 0.7031784 0.01461148 0.7031784 0.01461148 0.658156 0.02826887 0.6166631 0.05044728 0.6166631 0.05044728 0.5802944 0.08029437 0.5146116 0.2031783 0.5802944 0.08029437 0.5504474 0.116663 0.5146116 0.2031783 0.5504474 0.116663 0.5282689 0.1581559 0.5146116 0.2031783 0.5146116 0.2031783 0.51 0.25 0.5146116 0.2968217 0.5146116 0.2968217 0.5282689 0.341844 0.5504473 0.3833368 0.5504473 0.3833368 0.5802944 0.4197056 0.6166631 0.4495527 0.6166631 0.4495527 0.658156 0.4717311 0.5504473 0.3833368 0.658156 0.4717311 0.7031784 0.4853885 0.5504473 0.3833368 0.7031784 0.4853885 0.7968217 0.4853885 0.9853885 0.2968217 0.7968217 0.4853885 0.8833369 0.4495527 0.9853885 0.2968217 0.9853885 0.2968217 0.9853885 0.2031783 0.7968217 0.01461148 0.9853885 0.2031783 0.9495527 0.1166631 0.7968217 0.01461148 0.7968217 0.01461148 0.7031784 0.01461148 0.5146116 0.2031783 0.7031784 0.01461148 0.6166631 0.05044728 0.5146116 0.2031783 0.5146116 0.2031783 0.5146116 0.2968217 0.5504473 0.3833368 0.5146116 0.2031783 0.5504473 0.3833368 0.7031784 0.4853885 0.7031784 0.4853885 0.9853885 0.2968217 0.7968217 0.01461148 1 1 0.96875 1 0.96875 0.5 0.96875 1 0.9375 1 0.9375 0.5 0.9375 0.5 0.9375 1 0.90625 1 0.90625 0.5 0.90625 1 0.875 1 0.875 0.5 0.875 1 0.84375 1 0.84375 0.5 0.84375 1 0.8125 1 0.8125 0.5 0.8125 1 0.78125 1 0.78125 0.5 0.78125 1 0.75 1 0.75 0.5 0.75 1 0.71875 1 0.71875 0.5 0.71875 1 0.6875 1 0.6875 0.5 0.6875 1 0.65625 1 0.65625 0.5 0.65625 1 0.625 1 0.625 0.5 0.625 1 0.59375 1 0.59375 0.5 0.59375 1 0.5625 1 0.5625 1 0.53125 1 0.53125 0.5 0.53125 1 0.5 1 0.5 0.5 0.5 1 0.46875 1 0.46875 0.5 0.46875 1 0.4375 1 0.4375 0.5 0.4375 1 0.40625 1 0.40625 0.5 0.40625 1 0.375 1 0.375 0.5 0.375 1 0.34375 1 0.34375 0.5 0.34375 1 0.3125 1 0.3125 0.5 0.3125 1 0.28125 1 0.28125 0.5 0.28125 1 0.25 1 0.25 0.5 0.25 1 0.21875 1 0.21875 0.5 0.21875 1 0.1875 1 0.1875 0.5 0.1875 1 0.15625 1 0.15625 0.5 0.15625 1 0.125 1 0.125 0.5 0.125 1 0.09375 1 0.09375 0.5 0.09375 1 0.0625 1 0.0625 0.5 0.09090089 0.409099 0.08029431 0.4197056 0.05044722 0.3833368 0.05044722 0.3833368 0.02826893 0.341844 0.04212713 0.3361038 0.02826893 0.341844 0.01461154 0.2968217 0.04212713 0.3361038 0.01461154 0.2968217 0.00999999 0.25 0.02932327 0.2938953 0.00999999 0.25 0.01461154 0.2031783 0.02499997 0.25 0.02932327 0.2938953 0.00999999 0.25 0.02499997 0.25 0.01461154 0.2031783 0.02826893 0.1581559 0.04212707 0.1638962 0.02826893 0.1581559 0.05044734 0.116663 0.04212707 0.1638962 0.05044734 0.116663 0.08029437 0.08029437 0.06291937 0.1249966 0.08029437 0.08029437 0.1166631 0.05044728 0.09090095 0.09090095 0.06291937 0.1249966 0.08029437 0.08029437 0.09090095 0.09090095 0.1166631 0.05044728 0.1581559 0.02826893 0.1638962 0.04212707 0.1581559 0.02826893 0.2031783 0.01461148 0.1638962 0.04212707 0.2031783 0.01461148 0.25 0.00999999 0.25 0.02499997 0.25 0.00999999 0.2968217 0.01461148 0.2938953 0.02932327 0.2968217 0.01461148 0.341844 0.02826893 0.3361038 0.04212707 0.341844 0.02826893 0.3833369 0.05044728 0.3361038 0.04212707 0.3833369 0.05044728 0.4197056 0.08029437 0.4090991 0.09090095 0.4197056 0.08029437 0.4495527 0.1166631 0.4370806 0.1249967 0.4495527 0.1166631 0.4717311 0.158156 0.4370806 0.1249967 0.4717311 0.158156 0.4578729 0.1638962 0.4370806 0.1249967 0.06291931 0.3750033 0.09090089 0.409099 0.05044722 0.3833368 0.04212713 0.3361038 0.06291931 0.3750033 0.05044722 0.3833368 0.4197056 0.08029437 0.4370806 0.1249967 0.4090991 0.09090095 0.02932327 0.2938953 0.04212713 0.3361038 0.01461154 0.2968217 0.3833369 0.05044728 0.4090991 0.09090095 0.3750032 0.06291931 0.3833369 0.05044728 0.3750032 0.06291931 0.3361038 0.04212707 0.2968217 0.01461148 0.3361038 0.04212707 0.2938953 0.02932327 0.02932327 0.2061046 0.02499997 0.25 0.01461154 0.2031783 0.04212707 0.1638962 0.02932327 0.2061046 0.01461154 0.2031783 0.25 0.00999999 0.2938953 0.02932327 0.25 0.02499997 0.06291937 0.1249966 0.04212707 0.1638962 0.05044734 0.116663 0.2031783 0.01461148 0.25 0.02499997 0.2061047 0.02932327 0.2031783 0.01461148 0.2061047 0.02932327 0.1638962 0.04212707 0.1249967 0.06291931 0.09090095 0.09090095 0.1166631 0.05044728 0.4706767 0.2061046 0.4578729 0.1638962 0.4717311 0.158156 0.4717311 0.158156 0.4853885 0.2031783 0.4706767 0.2061046 0.4853885 0.2031783 0.49 0.25 0.4706767 0.2061046 0.49 0.25 0.4853885 0.2968217 0.475 0.25 0.4853885 0.2968217 0.4717311 0.341844 0.4706767 0.2938954 0.475 0.25 0.4853885 0.2968217 0.4706767 0.2938954 0.4717311 0.341844 0.4495527 0.3833369 0.4370806 0.3750033 0.4495527 0.3833369 0.4197056 0.4197056 0.4370806 0.3750033 0.4197056 0.4197056 0.3833369 0.4495527 0.3750033 0.4370807 0.3833369 0.4495527 0.341844 0.4717311 0.3750033 0.4370807 0.341844 0.4717311 0.2968217 0.4853885 0.2938953 0.4706766 0.2968217 0.4853885 0.25 0.49 0.25 0.475 0.25 0.49 0.2031783 0.4853885 0.2061047 0.4706767 0.2031783 0.4853885 0.1581559 0.4717311 0.2061047 0.4706767 0.1581559 0.4717311 0.1166631 0.4495527 0.1638962 0.4578729 0.1166631 0.4495527 0.08029431 0.4197056 0.1249967 0.4370807 0.1638962 0.4578729 0.1166631 0.4495527 0.1249967 0.4370807 0.08029431 0.4197056 0.09090089 0.409099 0.1249967 0.4370807 0.475 0.25 0.4706767 0.2061046 0.49 0.25 0.1581559 0.4717311 0.1638962 0.4578729 0.2061047 0.4706767 0.25 0.49 0.2061047 0.4706767 0.25 0.475 0.4578729 0.3361038 0.4706767 0.2938954 0.4717311 0.341844 0.4370806 0.3750033 0.4578729 0.3361038 0.4717311 0.341844 0.2968217 0.4853885 0.25 0.475 0.2938953 0.4706766 0.409099 0.409099 0.4370806 0.3750033 0.4197056 0.4197056 0.341844 0.4717311 0.2938953 0.4706766 0.3361037 0.4578729 0.3750033 0.4370807 0.409099 0.409099 0.4197056 0.4197056 0.0625 1 0.03125 1 0.03125 0.5 0.03125 1 0 1 0 0.5 0.6638963 0.04212707 0.7061048 0.02932327 0.7031784 0.01461148 0.7031784 0.01461148 0.658156 0.02826893 0.6638963 0.04212707 0.658156 0.02826893 0.6166631 0.05044728 0.6638963 0.04212707 0.6166631 0.05044728 0.5802944 0.08029437 0.6249966 0.06291931 0.5802944 0.08029437 0.5504474 0.116663 0.590901 0.09090095 0.6249966 0.06291931 0.5802944 0.08029437 0.590901 0.09090095 0.5504474 0.116663 0.5282689 0.1581559 0.542127 0.1638962 0.5282689 0.1581559 0.5146116 0.2031783 0.542127 0.1638962 0.5146116 0.2031783 0.51 0.25 0.5293233 0.2061046 0.51 0.25 0.5146116 0.2968217 0.525 0.25 0.5293233 0.2061046 0.51 0.25 0.525 0.25 0.5146116 0.2968217 0.5282689 0.341844 0.5421271 0.3361038 0.5282689 0.341844 0.5504473 0.3833368 0.5421271 0.3361038 0.5504473 0.3833368 0.5802944 0.4197056 0.5629193 0.3750032 0.5802944 0.4197056 0.6166631 0.4495527 0.5909009 0.409099 0.5629193 0.3750032 0.5802944 0.4197056 0.5909009 0.409099 0.6166631 0.4495527 0.658156 0.4717311 0.6638962 0.4578729 0.658156 0.4717311 0.7031784 0.4853885 0.6638962 0.4578729 0.7031784 0.4853885 0.75 0.49 0.75 0.475 0.75 0.49 0.7968217 0.4853885 0.75 0.475 0.7968217 0.4853885 0.841844 0.4717311 0.8361039 0.4578729 0.841844 0.4717311 0.8833369 0.4495527 0.8750033 0.4370806 0.8833369 0.4495527 0.9197056 0.4197056 0.9090991 0.4090991 0.9197056 0.4197056 0.9495527 0.3833369 0.9090991 0.4090991 0.9495527 0.3833369 0.9717311 0.341844 0.9578729 0.3361037 0.9717311 0.341844 0.9853885 0.2968217 0.9706767 0.2938952 0.9853885 0.2968217 0.99 0.25 0.9749999 0.2499999 0.99 0.25 0.9853885 0.2031783 0.9749999 0.2499999 0.9853885 0.2031783 0.9717311 0.158156 0.9706767 0.2061046 0.9717311 0.158156 0.9495527 0.1166631 0.9578729 0.1638963 0.9706767 0.2061046 0.9717311 0.158156 0.9578729 0.1638963 0.9495527 0.1166631 0.9370807 0.1249967 0.9578729 0.1638963 0.6249966 0.06291931 0.6638963 0.04212707 0.6166631 0.05044728 0.9853885 0.2031783 0.9706767 0.2061046 0.9749999 0.2499999 0.9853885 0.2968217 0.9749999 0.2499999 0.9706767 0.2938952 0.5629193 0.1249966 0.590901 0.09090095 0.5504474 0.116663 0.542127 0.1638962 0.5629193 0.1249966 0.5504474 0.116663 0.9717311 0.341844 0.9706767 0.2938952 0.9578729 0.3361037 0.5293233 0.2061046 0.542127 0.1638962 0.5146116 0.2031783 0.9495527 0.3833369 0.9578729 0.3361037 0.9370808 0.3750033 0.9495527 0.3833369 0.9370808 0.3750033 0.9090991 0.4090991 0.8833369 0.4495527 0.9090991 0.4090991 0.8750033 0.4370806 0.5293233 0.2938954 0.525 0.25 0.5146116 0.2968217 0.5421271 0.3361038 0.5293233 0.2938954 0.5146116 0.2968217 0.841844 0.4717311 0.8750033 0.4370806 0.8361039 0.4578729 0.5629193 0.3750032 0.5421271 0.3361038 0.5504473 0.3833368 0.7968217 0.4853885 0.8361039 0.4578729 0.7938952 0.4706766 0.7968217 0.4853885 0.7938952 0.4706766 0.75 0.475 0.7031784 0.4853885 0.75 0.475 0.7061048 0.4706767 0.6249967 0.4370806 0.5909009 0.409099 0.6166631 0.4495527 0.7031784 0.4853885 0.7061048 0.4706767 0.6638962 0.4578729 0.9370807 0.1249967 0.9495527 0.1166631 0.909099 0.09090095 0.9495527 0.1166631 0.9197056 0.08029437 0.909099 0.09090095 0.9197056 0.08029437 0.8833369 0.05044728 0.8750033 0.06291931 0.8833369 0.05044728 0.841844 0.02826893 0.8750033 0.06291931 0.841844 0.02826893 0.7968217 0.01461148 0.7938952 0.02932327 0.7968217 0.01461148 0.75 0.00999999 0.7500001 0.02499997 0.75 0.00999999 0.7031784 0.01461148 0.7061048 0.02932327 0.75 0.00999999 0.7061048 0.02932327 0.7500001 0.02499997 0.8750033 0.06291931 0.909099 0.09090095 0.9197056 0.08029437 0.7968217 0.01461148 0.7500001 0.02499997 0.7938952 0.02932327 0.841844 0.02826893 0.7938952 0.02932327 0.8361038 0.04212707 0.96875 0.875 1 0.875 1 0.625 0.9375 0.875 0.96875 0.875 0.96875 0.625 0.9375 0.625 0.90625 0.625 0.90625 0.875 0.875 0.875 0.90625 0.875 0.90625 0.625 0.84375 0.875 0.875 0.875 0.875 0.625 0.84375 0.625 0.8125 0.625 0.8125 0.875 0.8125 0.625 0.78125 0.625 0.78125 0.875 0.75 0.875 0.78125 0.875 0.78125 0.625 0.75 0.625 0.71875 0.625 0.71875 0.875 0.71875 0.625 0.6875 0.625 0.6875 0.875 0.6875 0.625 0.65625 0.625 0.65625 0.875 0.625 0.875 0.65625 0.875 0.65625 0.625 0.625 0.625 0.59375 0.625 0.59375 0.875 0.5625 0.875 0.59375 0.875 0.59375 0.625 0.53125 0.875 0.5625 0.875 0.5625 0.625 0.5 0.625 0.5 0.875 0.53125 0.875 0.46875 0.625 0.46875 0.875 0.5 0.875 0.4375 0.625 0.4375 0.875 0.46875 0.875 0.40625 0.625 0.40625 0.875 0.4375 0.875 0.40625 0.875 0.40625 0.625 0.375 0.625 0.375 0.875 0.375 0.625 0.34375 0.625 0.34375 0.875 0.34375 0.625 0.3125 0.625 0.28125 0.625 0.28125 0.875 0.3125 0.875 0.25 0.625 0.25 0.875 0.28125 0.875 0.21875 0.625 0.21875 0.875 0.25 0.875 0.21875 0.875 0.21875 0.625 0.1875 0.625 0.15625 0.625 0.15625 0.875 0.1875 0.875 0.125 0.625 0.125 0.875 0.15625 0.875 0.09375 0.625 0.09375 0.875 0.125 0.875 0.09375 0.625 0.0625 0.625 0.0625 0.875 0.03125 0.625 0.03125 0.875 0.0625 0.875 0 0.875 0.03125 0.875 0.03125 0.625</float_array>
          <technique_common>
            <accessor source="#Cube_019-mesh-map-0-array" count="1176" stride="2">
              <param name="S" type="float"/>
              <param name="T" type="float"/>
            </accessor>
          </technique_common>
        </source>
        <vertices id="Cube_019-mesh-vertices">
          <input semantic="POSITION" source="#Cube_019-mesh-positions"/>
        </vertices>
        <triangles count="392">
          <input semantic="VERTEX" source="#Cube_019-mesh-vertices" offset="0"/>
          <input semantic="NORMAL" source="#Cube_019-mesh-normals" offset="1"/>
          <input semantic="TEXCOORD" source="#Cube_019-mesh-map-0" offset="2" set="0"/>
          <p>1 0 0 2 0 1 0 0 2 3 1 3 6 1 4 2 1 5 7 2 6 4 2 7 6 2 8 5 3 9 0 3 10 4 3 11 6 4 12 0 4 13 2 4 14 3 5 15 5 5 16 7 5 17 9 6 18 10 6 19 8 6 20 11 7 21 12 7 22 10 7 23 13 8 24 14 8 25 12 8 26 15 9 27 16 9 28 14 9 29 17 10 30 18 10 31 16 10 32 19 11 33 20 11 34 18 11 35 21 12 36 22 12 37 20 12 38 23 13 39 24 13 40 22 13 41 25 14 42 26 14 43 24 14 44 27 15 45 28 15 46 26 15 47 29 16 48 30 16 49 28 16 50 31 17 51 32 17 52 30 17 53 33 18 54 34 18 55 32 18 56 35 19 57 36 19 58 34 19 59 37 20 60 38 20 61 36 20 62 39 21 63 40 21 64 38 21 65 41 22 66 42 22 67 40 22 68 43 23 69 44 23 70 42 23 71 45 24 72 46 24 73 44 24 74 47 25 75 48 25 76 46 25 77 49 26 78 50 26 79 48 26 80 51 27 81 52 27 82 50 27 83 53 28 84 54 28 85 52 28 86 55 29 87 56 29 88 54 29 89 57 30 90 58 30 91 56 30 92 59 31 93 60 31 94 58 31 95 61 32 96 62 32 97 60 32 98 63 33 99 64 33 100 62 33 101 65 34 102 66 34 103 64 34 104 67 35 105 68 35 106 66 35 107 61 36 108 45 36 109 29 36 110 69 37 111 70 37 112 68 37 113 71 38 114 8 38 115 70 38 116 38 39 117 54 39 118 70 39 119 73 40 120 74 40 121 72 40 122 75 41 123 76 41 124 74 41 125 76 42 126 79 42 127 78 42 128 78 43 129 81 43 130 80 43 131 80 44 132 83 44 133 82 44 134 82 45 135 85 45 136 84 45 137 84 46 138 87 46 139 86 46 140 86 47 141 89 47 142 88 47 143 88 48 144 91 48 145 90 48 146 90 49 147 93 49 148 92 49 149 92 50 150 95 50 151 94 50 152 94 51 153 97 51 154 96 51 155 96 52 156 99 52 157 98 52 158 98 53 159 101 53 160 100 53 161 101 54 162 102 54 163 100 54 164 103 55 165 104 55 166 102 55 167 105 56 168 106 56 169 104 56 170 107 57 171 108 57 172 106 57 173 109 58 174 110 58 175 108 58 176 111 59 177 112 59 178 110 59 179 113 60 180 114 60 181 112 60 182 115 61 183 116 61 184 114 61 185 117 62 186 118 62 187 116 62 188 119 63 189 120 63 190 118 63 191 121 64 192 122 64 193 120 64 194 123 65 195 124 65 196 122 65 197 125 66 198 126 66 199 124 66 200 127 67 201 128 67 202 126 67 203 129 68 204 130 68 205 128 68 206 131 69 207 132 69 208 130 69 209 111 70 210 163 70 211 174 70 212 77 71 213 196 71 214 187 71 215 133 72 216 134 72 217 132 72 218 135 73 219 72 73 220 134 73 221 185 74 222 152 74 223 130 74 224 100 75 225 139 75 226 136 75 227 168 76 228 156 76 229 198 76 230 196 77 231 198 77 232 157 77 233 157 78 234 187 78 235 196 78 236 160 79 237 161 79 238 158 79 239 188 80 240 158 80 241 199 80 242 199 81 243 192 81 244 188 81 245 159 82 246 189 82 247 192 82 248 154 83 249 194 83 250 173 83 251 173 84 252 190 84 253 154 84 254 138 85 255 197 85 256 190 85 257 171 86 258 181 86 259 197 86 260 153 87 261 172 87 262 169 87 263 169 88 264 137 88 265 153 88 266 140 89 267 136 89 268 139 89 269 145 90 270 139 90 271 144 90 272 150 91 273 145 91 274 144 91 275 143 92 276 151 92 277 150 92 278 162 93 279 155 93 280 143 93 281 170 94 282 163 94 283 162 94 284 174 95 285 175 95 286 148 95 287 148 96 288 147 96 289 178 96 290 178 97 291 179 97 292 180 97 293 191 98 294 180 98 295 179 98 296 182 99 297 176 99 298 191 99 299 149 100 300 146 100 301 182 100 302 177 101 303 183 101 304 195 101 305 186 102 306 195 102 307 183 102 308 184 103 309 164 103 310 186 103 311 152 104 312 142 104 313 184 104 314 152 105 315 166 105 316 165 105 317 193 106 318 166 106 319 185 106 320 141 107 321 193 107 322 156 107 323 1 0 324 3 0 325 2 0 326 3 1 327 7 1 328 6 1 329 7 2 330 5 2 331 4 2 332 5 3 333 1 3 334 0 3 335 6 4 336 4 4 337 0 4 338 3 5 339 1 5 340 5 5 341 9 108 342 11 108 343 10 108 344 11 7 345 13 7 346 12 7 347 13 109 348 15 109 349 14 109 350 15 110 351 17 110 352 16 110 353 17 111 354 19 111 355 18 111 356 19 112 357 21 112 358 20 112 359 21 113 360 23 113 361 22 113 362 23 114 363 25 114 364 24 114 365 25 115 366 27 115 367 26 115 368 27 116 369 29 116 370 28 116 371 29 117 372 31 117 373 30 117 374 31 118 375 33 118 376 32 118 377 33 119 378 35 119 379 34 119 380 35 19 381 37 19 382 36 19 383 37 120 384 39 120 385 38 120 386 39 121 387 41 121 388 40 121 389 41 122 390 43 122 391 42 122 392 43 123 393 45 123 394 44 123 395 45 124 396 47 124 397 46 124 398 47 125 399 49 125 400 48 125 401 49 126 402 51 126 403 50 126 404 51 127 405 53 127 406 52 127 407 53 128 408 55 128 409 54 128 410 55 129 411 57 129 412 56 129 413 57 130 414 59 130 415 58 130 416 59 131 417 61 131 418 60 131 419 61 132 420 63 132 421 62 132 422 63 133 423 65 133 424 64 133 425 65 134 426 67 134 427 66 134 428 67 135 429 69 135 430 68 135 431 13 5 432 11 5 433 69 5 434 11 136 435 9 136 436 69 136 437 9 137 438 71 137 439 69 137 440 69 138 441 67 138 442 65 138 443 65 5 444 63 5 445 69 5 446 63 5 447 61 5 448 69 5 449 61 139 450 59 139 451 57 139 452 57 140 453 55 140 454 53 140 455 53 141 456 51 141 457 49 141 458 49 5 459 47 5 460 45 5 461 45 142 462 43 142 463 41 142 464 41 143 465 39 143 466 37 143 467 37 144 468 35 144 469 33 144 470 33 5 471 31 5 472 29 5 473 29 145 474 27 145 475 25 145 476 25 5 477 23 5 478 29 5 479 23 5 480 21 5 481 29 5 482 21 146 483 19 146 484 17 146 485 17 5 486 15 5 487 13 5 488 61 147 489 57 147 490 45 147 491 57 5 492 53 5 493 45 5 494 53 148 495 49 148 496 45 148 497 45 5 498 41 5 499 29 5 500 41 5 501 37 5 502 29 5 503 37 5 504 33 5 505 29 5 506 21 5 507 17 5 508 29 5 509 17 149 510 13 149 511 29 149 512 13 5 513 69 5 514 61 5 515 13 150 516 61 150 517 29 150 518 69 151 519 71 151 520 70 151 521 71 38 522 9 38 523 8 38 524 70 4 525 8 4 526 10 4 527 10 4 528 12 4 529 14 4 530 14 4 531 16 4 532 22 4 533 16 4 534 18 4 535 22 4 536 18 4 537 20 4 538 22 4 539 22 152 540 24 152 541 26 152 542 26 153 543 28 153 544 30 153 545 30 4 546 32 4 547 38 4 548 32 154 549 34 154 550 38 154 551 34 155 552 36 155 553 38 155 554 38 4 555 40 4 556 42 4 557 42 4 558 44 4 559 46 4 560 46 156 561 48 156 562 54 156 563 48 4 564 50 4 565 54 4 566 50 4 567 52 4 568 54 4 569 54 4 570 56 4 571 58 4 572 58 4 573 60 4 574 62 4 575 62 157 576 64 157 577 66 157 578 66 158 579 68 158 580 62 158 581 68 159 582 70 159 583 62 159 584 70 4 585 10 4 586 22 4 587 10 160 588 14 160 589 22 160 590 22 4 591 26 4 592 38 4 593 26 161 594 30 161 595 38 161 596 38 4 597 42 4 598 54 4 599 42 4 600 46 4 601 54 4 602 54 4 603 58 4 604 62 4 605 54 162 606 62 162 607 70 162 608 70 163 609 22 163 610 38 163 611 73 164 612 75 164 613 74 164 614 75 165 615 77 165 616 76 165 617 76 166 618 77 166 619 79 166 620 78 167 621 79 167 622 81 167 623 80 168 624 81 168 625 83 168 626 82 169 627 83 169 628 85 169 629 84 170 630 85 170 631 87 170 632 86 171 633 87 171 634 89 171 635 88 172 636 89 172 637 91 172 638 90 173 639 91 173 640 93 173 641 92 174 642 93 174 643 95 174 644 94 175 645 95 175 646 97 175 647 96 176 648 97 176 649 99 176 650 98 177 651 99 177 652 101 177 653 101 178 654 103 178 655 102 178 656 103 179 657 105 179 658 104 179 659 105 180 660 107 180 661 106 180 662 107 181 663 109 181 664 108 181 665 109 182 666 111 182 667 110 182 668 111 183 669 113 183 670 112 183 671 113 184 672 115 184 673 114 184 674 115 185 675 117 185 676 116 185 677 117 186 678 119 186 679 118 186 680 119 187 681 121 187 682 120 187 683 121 188 684 123 188 685 122 188 686 123 189 687 125 189 688 124 189 689 125 190 690 127 190 691 126 190 692 127 191 693 129 191 694 128 191 695 129 192 696 131 192 697 130 192 698 131 193 699 133 193 700 132 193 701 142 194 702 129 194 703 127 194 704 127 195 705 125 195 706 195 195 707 125 196 708 123 196 709 195 196 710 123 197 711 121 197 712 177 197 713 121 198 714 119 198 715 146 198 716 177 199 717 121 199 718 146 199 719 119 200 720 117 200 721 180 200 722 117 201 723 115 201 724 180 201 725 115 202 726 113 202 727 178 202 728 113 203 729 111 203 730 148 203 731 178 204 732 113 204 733 148 204 734 111 205 735 109 205 736 163 205 737 109 206 738 107 206 739 163 206 740 107 207 741 105 207 742 151 207 743 105 208 744 103 208 745 145 208 746 103 209 747 101 209 748 140 209 749 101 210 750 99 210 751 140 210 752 99 211 753 97 211 754 153 211 755 97 212 756 95 212 757 181 212 758 95 213 759 93 213 760 181 213 761 93 214 762 197 214 763 181 214 764 164 215 765 142 215 766 127 215 767 195 215 768 164 215 769 127 215 770 97 216 771 181 216 772 153 216 773 177 217 774 195 217 775 123 217 776 99 218 777 153 218 778 137 218 779 99 3 780 137 3 781 140 3 782 103 219 783 140 219 784 145 219 785 176 220 786 146 220 787 119 220 788 180 221 789 176 221 790 119 221 791 105 3 792 145 3 793 151 3 794 178 222 795 180 222 796 115 222 797 107 3 798 151 3 799 155 3 800 107 223 801 155 223 802 163 223 803 174 224 804 148 224 805 111 224 806 190 225 807 197 225 808 93 225 809 93 226 810 91 226 811 190 226 812 91 227 813 89 227 814 190 227 815 89 228 816 87 228 817 154 228 818 87 229 819 85 229 820 189 229 821 154 230 822 87 230 823 189 230 824 85 231 825 83 231 826 188 231 827 83 232 828 81 232 829 188 232 830 81 233 831 79 233 832 187 233 833 79 234 834 77 234 835 187 234 836 77 235 837 75 235 838 168 235 839 75 3 840 73 3 841 141 3 842 73 236 843 135 236 844 167 236 845 135 3 846 133 3 847 167 3 848 133 237 849 131 237 850 166 237 851 131 238 852 129 238 853 165 238 854 166 239 855 131 239 856 165 239 857 129 240 858 142 240 859 165 240 860 154 241 861 190 241 862 89 241 863 133 242 864 166 242 865 167 242 866 73 3 867 167 3 868 141 3 869 192 243 870 189 243 871 85 243 872 188 244 873 192 244 874 85 244 875 75 245 876 141 245 877 168 245 878 160 246 879 188 246 880 81 246 881 77 247 882 168 247 883 196 247 884 187 248 885 160 248 886 81 248 887 133 249 888 135 249 889 134 249 890 135 250 891 73 250 892 72 250 893 162 251 894 143 251 895 106 251 896 106 252 897 108 252 898 162 252 899 108 253 900 110 253 901 162 253 902 110 254 903 112 254 904 170 254 905 112 255 906 114 255 907 175 255 908 170 256 909 112 256 910 175 256 911 114 257 912 116 257 913 179 257 914 116 258 915 118 258 916 179 258 917 118 259 918 120 259 919 191 259 920 120 260 921 122 260 922 182 260 923 191 261 924 120 261 925 182 261 926 122 262 927 124 262 928 183 262 929 124 263 930 126 263 931 183 263 932 126 264 933 128 264 934 186 264 935 128 265 936 130 265 937 184 265 938 186 266 939 128 266 940 184 266 941 130 267 942 132 267 943 185 267 944 132 268 945 134 268 946 185 268 947 134 1 948 72 1 949 156 1 950 72 1 951 74 1 952 156 1 953 74 269 954 76 269 955 157 269 956 76 270 957 78 270 958 161 270 959 78 271 960 80 271 961 158 271 962 80 272 963 82 272 964 158 272 965 82 257 966 84 257 967 159 257 968 84 273 969 86 273 970 194 273 971 86 1 972 88 1 973 173 1 974 88 274 975 90 274 976 173 274 977 90 275 978 92 275 979 138 275 980 92 276 981 94 276 982 171 276 983 138 277 984 92 277 985 171 277 986 94 278 987 172 278 988 171 278 989 170 261 990 162 261 991 110 261 992 90 279 993 138 279 994 173 279 995 86 280 996 173 280 997 194 280 998 147 281 999 175 281 1000 114 281 1001 179 282 1002 147 282 1003 114 282 1004 84 283 1005 194 283 1006 159 283 1007 191 284 1008 179 284 1009 118 284 1010 82 285 1011 159 285 1012 199 285 1013 82 285 1014 199 285 1015 158 285 1016 78 286 1017 158 286 1018 161 286 1019 149 287 1020 182 287 1021 122 287 1022 183 288 1023 149 288 1024 122 288 1025 76 289 1026 161 289 1027 157 289 1028 186 290 1029 183 290 1030 126 290 1031 74 291 1032 157 291 1033 198 291 1034 74 1 1035 198 1 1036 156 1 1037 134 1 1038 156 1 1039 193 1 1040 152 292 1041 184 292 1042 130 292 1043 134 293 1044 193 293 1045 185 293 1046 172 294 1047 94 294 1048 169 294 1049 94 295 1050 96 295 1051 169 295 1052 96 296 1053 98 296 1054 136 296 1055 98 297 1056 100 297 1057 136 297 1058 100 298 1059 102 298 1060 144 298 1061 102 299 1062 104 299 1063 150 299 1064 104 300 1065 106 300 1066 143 300 1067 104 1 1068 143 1 1069 150 1 1070 136 301 1071 169 301 1072 96 301 1073 102 1 1074 150 1 1075 144 1 1076 100 302 1077 144 302 1078 139 302 1079 168 303 1080 141 303 1081 156 303 1082 196 304 1083 168 304 1084 198 304 1085 157 78 1086 161 78 1087 187 78 1088 160 305 1089 187 305 1090 161 305 1091 188 306 1092 160 306 1093 158 306 1094 199 307 1095 159 307 1096 192 307 1097 159 308 1098 194 308 1099 189 308 1100 154 309 1101 189 309 1102 194 309 1103 173 310 1104 138 310 1105 190 310 1106 138 311 1107 171 311 1108 197 311 1109 171 312 1110 172 312 1111 181 312 1112 153 313 1113 181 313 1114 172 313 1115 169 314 1116 136 314 1117 137 314 1118 140 315 1119 137 315 1120 136 315 1121 145 316 1122 140 316 1123 139 316 1124 150 317 1125 151 317 1126 145 317 1127 143 318 1128 155 318 1129 151 318 1130 162 319 1131 163 319 1132 155 319 1133 170 320 1134 174 320 1135 163 320 1136 174 321 1137 170 321 1138 175 321 1139 148 322 1140 175 322 1141 147 322 1142 178 323 1143 147 323 1144 179 323 1145 191 324 1146 176 324 1147 180 324 1148 182 325 1149 146 325 1150 176 325 1151 149 326 1152 177 326 1153 146 326 1154 177 327 1155 149 327 1156 183 327 1157 186 328 1158 164 328 1159 195 328 1160 184 329 1161 142 329 1162 164 329 1163 152 330 1164 165 330 1165 142 330 1166 152 105 1167 185 105 1168 166 105 1169 193 331 1170 167 331 1171 166 331 1172 141 332 1173 167 332 1174 193 332 1175</p>
        </triangles>
      </mesh>
    </geometry>
  </library_geometries>
  <library_visual_scenes>
    <visual_scene id="Scene" name="Scene">
      <node id="Rescued_Complete" name="Rescued_Complete" type="NODE">
        <matrix sid="transform">0.3 0 0 0 0 0.3 0 0 0 0 0.3 0.15 0 0 0 1</matrix>
        <instance_geometry url="#Cube_019-mesh" name="Rescued_Complete"/>
      </node>
    </visual_scene>
  </library_visual_scenes>
  <scene>
    <instance_visual_scene url="#Scene"/>
  </scene>
</COLLADA>